<svg width="50" height="56" viewBox="0 0 50 56" fill="none" xmlns="http://www.w3.org/2000/svg">
<g clip-path="url(#clip0_642_378)">
<path d="M4.32994 51.17C3.7195 51.17 3.14639 51.1788 2.57437 51.1657C2.35259 51.1603 2.12862 51.1232 1.91123 51.0732C0.73207 50.8021 0.146881 50.0739 0.0436768 48.7481C0.0173268 48.4117 0.00744557 48.0721 0.00744557 47.7347C0.00634766 34.0835 0.00634766 20.4335 0.00634766 6.78347C0.00634766 3.73344 1.99907 1.37679 5.05127 0.967507C7.20209 0.679049 9.36828 0.468965 11.5345 0.343785C16.6639 0.0466191 21.8 -0.0535247 26.936 0.0259372C30.4406 0.0803632 33.9451 0.193569 37.4464 0.34052C39.7224 0.436309 41.9984 0.594145 44.2458 1.00887C46.9873 1.51503 48.913 3.74432 49.002 6.50916C49.0064 6.63543 49.0053 6.76279 49.0053 6.88906C49.0053 20.4651 49.0053 34.0422 49.0031 47.6182C49.0031 47.9981 48.9833 48.3791 48.9547 48.7579C48.845 50.2579 48.0303 51.0699 46.5141 51.1603C45.9124 51.1962 45.3064 51.1657 44.6685 51.1657V51.5848C44.6685 52.6515 44.6707 53.7194 44.6685 54.7861C44.6663 55.5328 44.2118 55.9911 43.4542 55.9944C42.1652 56.0009 40.8752 56.002 39.5862 55.9944C38.844 55.99 38.3983 55.5372 38.3961 54.8003C38.3917 53.7335 38.3961 52.6657 38.3961 51.5989C38.3961 51.4846 38.3961 51.3714 38.3961 51.2354H10.6144C10.6144 51.3497 10.6144 51.4607 10.6144 51.5728C10.6144 52.6189 10.6177 53.6649 10.6133 54.711C10.61 55.5709 10.1807 55.9944 9.31558 55.9965C8.09031 55.9987 6.86503 55.9987 5.63866 55.9965C4.76032 55.9944 4.32994 55.5611 4.32994 54.686C4.32994 53.5463 4.32994 52.4055 4.32994 51.17ZM24.4987 31.7617C30.5405 31.7617 36.5823 31.7519 42.6231 31.7726C43.4586 31.7759 44.058 31.3427 44.0548 30.3706C44.0317 24.2433 44.0427 18.1161 44.0427 11.9888C44.0427 11.8723 44.0449 11.7558 44.035 11.6404C43.9933 11.1321 43.587 10.7076 43.0754 10.6477C42.9063 10.6281 42.7351 10.6292 42.5649 10.6292C30.524 10.6292 18.4832 10.6292 6.44233 10.6292C6.32486 10.6292 6.20738 10.627 6.091 10.6336C5.407 10.6684 4.95905 11.1169 4.95905 11.7939C4.95575 18.0584 4.95356 24.3228 4.96893 30.5872C4.96893 30.8496 5.09629 31.1445 5.25 31.3655C5.48495 31.703 5.87361 31.765 6.27545 31.7639C12.3491 31.7606 18.4228 31.7617 24.4965 31.7617H24.4987ZM24.5063 7.80123C28.7794 7.80123 33.0525 7.80123 37.3256 7.80123C38.1864 7.80123 38.619 7.37127 38.6212 6.51352C38.6234 5.84843 38.6267 5.18226 38.6212 4.51717C38.6146 3.7465 38.1589 3.29912 37.3827 3.29912C28.7937 3.29803 20.2047 3.29803 11.6157 3.29912C10.8439 3.29912 10.3915 3.75303 10.386 4.52479C10.3817 5.18008 10.3839 5.83537 10.386 6.48957C10.3871 7.38651 10.8098 7.80123 11.7211 7.80123C15.9832 7.80123 20.2464 7.80123 24.5085 7.80123H24.5063ZM24.5031 49.2357C25.8875 49.2357 27.272 49.2412 28.6576 49.2336C29.4678 49.2292 29.9125 48.7851 29.9158 48.0035C29.9191 47.1273 29.9191 46.251 29.9158 45.3737C29.9125 44.6204 29.47 44.1687 28.7048 44.1676C25.904 44.1622 23.1021 44.1622 20.3013 44.1676C19.5372 44.1687 19.0936 44.6226 19.0892 45.3748C19.0859 46.2086 19.12 47.0446 19.0793 47.8773C19.0376 48.7263 19.5756 49.2597 20.4452 49.2434C21.7978 49.2172 23.1504 49.2368 24.5031 49.2368V49.2357ZM9.23543 39.2366C7.26357 39.2366 5.6683 40.8073 5.6683 42.7503C5.6683 44.6879 7.27346 46.2739 9.23324 46.2739C11.1941 46.2739 12.8004 44.6879 12.8004 42.7514C12.8004 40.8084 11.2062 39.2366 9.23433 39.2366H9.23543ZM36.2101 42.7395C36.2025 44.6825 37.7933 46.2684 39.7586 46.275C41.7085 46.2815 43.3202 44.7119 43.3312 42.795C43.3422 40.8335 41.7777 39.2497 39.8146 39.2366C37.8153 39.2235 36.2178 40.7747 36.2101 42.7395Z" fill="#7D4996"/>
</g>
<defs>
<clipPath id="clip0_642_378">
<rect width="49" height="56" fill="white" transform="translate(0.00634766)"/>
</clipPath>
</defs>
</svg>
