<svg width="869" height="1306" viewBox="0 0 869 1306" fill="none" xmlns="http://www.w3.org/2000/svg">
<path d="M-15.8692 917.236C171.091 953.883 352.411 831.774 389.12 644.498C425.829 457.222 304.026 275.697 117.065 239.05C-69.8955 202.403 -251.215 324.512 -287.924 511.788C-324.633 699.064 -202.83 880.589 -15.8692 917.236Z" fill="url(#paint0_linear_937_245)"/>
<path d="M2.2621 1059.39C-45.3794 1056.79 -4.87069 968.838 3.27329 949.775C28.8627 889.824 60.713 832.77 86.5849 772.949C101.267 739.008 129.642 682.997 112.917 645.166C101.443 619.183 80.1899 596.815 67.9293 570.508C39.7401 510.005 26.9079 443.161 22.8771 376.819C20.6103 339.567 31.1061 291.71 -0.400136 264.545C-36.3041 233.593 -95.8054 232.653 -140.101 223.705C-150.196 240.694 -169.836 266.716 -136.094 261.67C-135.616 324.305 -75.476 325.615 -25.9295 321.806C31.7705 317.361 88.3868 304.087 145.83 297.538C179.549 293.69 234.434 284.917 257.83 316.992C273.081 337.906 284.436 360.323 301.894 379.894C338.333 420.738 385.34 450.473 436.961 468.155C463.154 477.13 496.59 476.354 498.302 510.859C500.605 557.406 469.072 608.777 450.801 649.652C297.09 780.903 142.993 914.014 2.2621 1059.39Z" stroke="black" stroke-width="0.5" stroke-miterlimit="10"/>
<path d="M366.646 722.091C388.103 672.117 415.952 623.013 429.449 570.085C433.268 555.1 437.678 536.72 431.116 521.87C424.592 507.092 409.761 504.355 395.993 498.741C346.336 478.465 302.222 446.106 268.832 404.009C252.891 383.906 239.483 361.831 228.468 338.651C221.67 324.351 217.852 309.751 204.389 300.411C190.144 290.512 171.427 288.694 154.587 287.755C99.0926 284.686 43.1831 296.684 -11.9296 301.583C-58.5581 305.73 -126.026 314.334 -149.45 263.925" stroke="black" stroke-width="0.5" stroke-miterlimit="10"/>
<path d="M283.546 795.056C303.308 741.484 330.833 691.327 351.741 638.246C362.543 610.821 386.029 558.298 357.1 534.404C337.036 517.834 310.082 508.731 289.413 491.733C268.093 474.203 249.296 453.721 233.353 431.192C217.434 408.7 204.467 384.265 194.116 358.726C182.062 328.98 179.831 298.214 145.842 286.424C100.662 270.77 45.9616 280.612 -0.529616 283.679C-50.9915 287.011 -114.022 296.113 -155.206 260.616" stroke="black" stroke-width="0.5" stroke-miterlimit="10"/>
<path d="M203.532 866.913C216.928 812.061 245.18 761.983 268.438 710.894C284.511 675.599 316.492 619.666 305.43 578.903C298.95 555.016 266.325 541.685 248.831 525.661C228.241 506.795 210.389 485.062 195.438 461.483C180.318 437.626 168.258 411.975 158.797 385.366C149.344 358.769 148.313 316.674 129.628 295.565C102.439 264.852 46.4248 269.202 9.59393 269.419C-45.3549 269.744 -103.935 276.676 -155.266 253.338" stroke="black" stroke-width="0.5" stroke-miterlimit="10"/>
<path d="M128.635 936.008C128.238 883.42 160.504 831.724 182.507 785.517C205.506 737.207 235.327 684.926 242.266 631.106C246.994 594.416 226.376 583.598 203.522 559.864C184.737 540.352 168.589 518.379 155.169 494.844C123.952 440.088 111.354 380.938 101.002 319.485C93.6615 275.876 55.5234 265.263 16.3576 260.649C-39.8012 254.035 -96.5425 259.061 -151.495 243.694" stroke="black" stroke-width="0.5" stroke-miterlimit="10"/>
<path d="M60.8629 1000.72C49.1316 986.019 55.2974 964.749 59.7901 948.438C67.4153 920.753 80.0851 894.205 92.2215 868.265C118.233 812.662 148.428 758.146 168.122 699.826C180.37 663.568 187.356 632.045 160.921 602.034C141.942 580.473 125.811 556.737 112.67 531.183C83.0561 473.613 68.5277 409.192 63.0082 344.973C59.3681 302.59 55.968 273.828 11.3189 258.396C-38.5631 241.161 -94.3719 243.977 -145.815 233.297" stroke="black" stroke-width="0.5" stroke-miterlimit="10"/>
<path d="M10.929 276.638C17.4908 272.095 25.9204 264.524 34.4862 263.139C34.8353 280.484 5.31686 307.708 -3.85589 319.612" stroke="black" stroke-width="0.5" stroke-miterlimit="10"/>
<path d="M28.9368 435.463C67.2077 403.519 105.918 372.096 145.858 342.256C165.69 327.441 192.512 300.157 217.858 295.955" stroke="black" stroke-width="0.5" stroke-miterlimit="10"/>
<path d="M67.9133 570.537C143.102 503.798 219.824 438.125 301.871 379.9" stroke="black" stroke-width="0.5" stroke-miterlimit="10"/>
<path d="M114.958 688.661C205.532 606.714 296.074 524.389 392.638 449.489" stroke="black" stroke-width="0.5" stroke-miterlimit="10"/>
<path d="M19.4328 914.039C174.981 771.085 332.847 630.18 495.707 495.596" stroke="black" stroke-width="0.5" stroke-miterlimit="10"/>
<defs>
<linearGradient id="paint0_linear_937_245" x1="-288.338" y1="511.895" x2="389.307" y2="644.723" gradientUnits="userSpaceOnUse">
<stop offset="0.1267" stop-color="#7D4996"/>
<stop offset="0.367708" stop-color="#95558D"/>
<stop offset="1" stop-color="#005DB4"/>
</linearGradient>
</defs>
</svg>
