<svg xmlns="http://www.w3.org/2000/svg" viewBox="0 0 1675.18 842"><g id="Calque_2" data-name="Calque 2"><g id="Calque_1-2" data-name="Calque 1"><path d="M1675.18,724.14c-15.14,0-30.29-.1-45.42.07-3.47,0-4.53-.92-4.5-4.45.16-19.12.09-38.24.06-57.36,0-2.47-.16-4.57,3.46-4.52,15.46.22,30.93.25,46.4.34v10h-25.44c-11.08,0-12.27-1.69-12.34,6.56,0,1.39,0,4.87.08,6.77,0,3.14.68,3.77,3.66,3.71,8-.18,16,0,23.94-.12,3.71-.07,6.09,0,6,5.06s-1.66,6.32-6.33,5.95-9.64-.09-14.46-.09c-11,0-12.78-.07-12.88,6.53,0,1.91,0,4.77,0,7.92.15,2.24.43,3,2.87,3,11.63-.17,23.26-.22,34.89-.32Z"/><path d="M430.85.85a4.8,4.8,0,0,0,.07-.85h6c0,.27.05.55.07.83Z"/><path d="M312,0a2.49,2.49,0,0,0,.07.86l-6.15,0A8,8,0,0,0,306,0Z"/><path d="M187.06,0a1.87,1.87,0,0,0,.06.88L181,.83c0-.28,0-.55.08-.83Z"/><path d="M40.67,605.31c7.34-9.56,14.2-18.47,21-27.39q41.88-54.67,83.76-109.36c9.32-12.17,22.35-12,31.5.31,9.91,13.33,19.87,26.63,30.25,40.54,2.57-3.46,4.88-6.56,7.2-9.66Q253.84,447,293.29,394.22c9-12.05,22.22-12.09,31.16-.13q42.89,57.36,85.75,114.74c1.76-.34,2.22-1.9,3.05-3,9.09-12.11,18.12-24.25,27.21-36.36,10-13.31,22.53-13.28,32.71,0l101,132c.78,1,1.64,1.95,3,3.6C580,590.45,582,576.57,582,562.5q.24-206.47.45-412.95c0-3.83-.87-5-4.89-5-30.64.18-61.29.12-91.94.09-10.66,0-17.9-5.13-19.8-13.88-2.48-11.37,5.33-21.52,17.09-21.84,8.82-.25,17.65-.06,26.48-.06q44,0,87.94,0c13.66,0,20.5,6.89,20.5,20.58,0,142.48.52,285-.2,427.45-.4,80-28.82,149.62-83.2,208.41-29.2,31.57-64,55.35-103.38,72.53-12.75,5.56-20.2,3.6-28.53-7.54Q357.21,769.77,312,709.14c-2.81-3.79-3.78-3.26-6.33.16Q259.89,771,213.77,832.48c-6.6,8.83-14.44,10.72-24.53,6.43-37.17-15.8-70.31-37.68-98.81-66.25q-61.88-62-82.16-147.43A309.53,309.53,0,0,1,.13,553.05q.15-212-.13-424c0-12.46,8.83-20.47,20.42-20.36,37.81.38,75.62.12,113.42.16,8,0,14.22,3.43,17.34,11.06,2.82,6.92,1.61,13.43-3.44,19-4.1,4.49-9.52,5.75-15.41,5.74-30.47,0-61,.11-91.43-.14-4.63,0-5.36,1.38-5.35,5.57q.16,204.24.14,408.48A237.6,237.6,0,0,0,40.67,605.31ZM426,801l3.16-1.56a272.47,272.47,0,0,0,90-70.69c5.8-6.91,5.76-7,.47-14Q415.6,575.6,311.71,436.41c-2.78-3.73-3.62-2.56-5.72.25Q200.93,577.46,95.67,718.12c-2,2.71-2.19,4.3,0,7a278.49,278.49,0,0,0,92.75,74.3c3.22,1.61,4.62,1.27,6.75-1.59q49.14-66.07,98.54-132c8.45-11.29,21.65-11.37,30.2-.19,7.17,9.38,14.16,18.91,21.23,28.37Q384,746.07,422.88,798C423.72,799.16,424.23,800.74,426,801Z"/><path d="M866.83,247.11c0-32.62.07-65.24-.09-97.87,0-3.93,1-5,5-5q30.46.3,60.95,0c4.12,0,4.87,1.33,4.86,5.09q-.15,88.89-.09,177.76A106.88,106.88,0,0,0,941,355.2c8.08,30,30.27,47.17,61.5,47.85,11.07.24,22-.77,32.34-4.91,22.44-9,33.4-26.8,37.7-49.6a133.23,133.23,0,0,0,2-24.82q0-87.14-.1-174.27c0-4.07.84-5.27,5.1-5.22,20.32.25,40.63.18,61,.05,3.14,0,4.25.67,4.24,4.07-.16,62.41.14,124.82-.41,187.23-.21,23.62-5.36,46.51-16.29,67.74-16,31-41.63,50.07-75,58.65-34.2,8.8-68.66,8.77-102.42-1.93-43.55-13.79-68.67-44.7-78.92-88.51-3.58-15.3-4.72-30.88-4.83-46.53C866.69,299,866.83,273.07,866.83,247.11Z"/><path d="M1338.79,144.35c42.14,0,84.27.08,126.41-.12,4.69,0,5.75,1.35,5.68,5.81-.24,17.81-.31,35.62,0,53.43.09,5-1.53,5.91-6.15,5.87-28.15-.21-56.29-.13-84.44-.09-7.31,0-6.48-.93-6.48,6.25q0,120.6.09,241.18c0,4.81-.81,6.51-6.13,6.4-19.65-.37-39.31-.31-59,0-4.59.07-5.39-1.37-5.39-5.6.13-80.73,0-161.46.23-242.18,0-5.2-1.41-6.2-6.31-6.15-28.64.24-57.29,0-85.93.21-4,0-5-1.19-4.92-5,.19-18.31.23-36.62,0-54.92-.07-4.35,1.4-5.12,5.36-5.11C1254.19,144.4,1296.49,144.35,1338.79,144.35Z"/><path d="M181,.83l6.13.05c7.93,1.84,12.79,6.62,14.23,14.73.49,2.78,1.36,5.52,1.54,8.31,1,14.76,10,23.08,22.75,27.91a57.76,57.76,0,0,0,42.85-.46c14.36-5.71,22.09-16.36,22.62-32,.36-10.32,5.07-16,14.8-18.49l6.15,0c9.1,2.39,14.7,8.23,14.64,17.07-.17,21.76,15.12,33.71,34.21,36.72,13.75,2.17,27.21.88,39.39-6.79,8.34-5.24,13.58-12.44,14.54-22.54a60.51,60.51,0,0,1,2.4-12.69c2.1-6.49,6.86-10.4,13.61-11.78l6.14,0c10.55,2.6,16.36,10.38,14.58,20.92-6.1,36.2-12.48,72.35-18.89,108.49-1.33,7.49-6.89,12.58-14.48,13.89a40.36,40.36,0,0,1-6.95.51q-102.39,0-204.78,0c-13.67,0-19.46-4.58-21.87-18q-9.3-51.73-18.26-103.53C164.35,11.6,170.06,3.25,181,.83Zm223.22,84.8c-1.72.58-2.49.89-3.28,1.09-33.22,8.67-64,5.59-90-19.13-1.67-1.59-2.46-1.3-3.94.15C289,85.45,266.91,91.67,242.3,91c-9.61-.26-18.89-2.32-28.69-5.18,1.15,6.53,2.54,12.36,3.08,18.25.38,4.22,2.14,4.9,6,4.89q86.37-.19,172.74-.09c.83,0,1.67-.06,2.49,0,1.57.13,2.52-.41,2.79-2.07C401.79,100,403,93.15,404.21,85.63Z"/><path d="M708.75,303.58c0-51.42.06-102.83-.1-154.25,0-4.28,1.19-5.13,5.23-5.08q30.21.31,60.44,0c3.79,0,4.64,1,4.64,4.7q-.16,154.76,0,309.5c0,3.91-1.2,4.59-4.77,4.57-20.31-.17-40.63-.2-60.94,0-3.85,0-4.6-1.08-4.59-4.71Q708.85,381,708.75,303.58Z"/><path d="M1079.39,547.68l-25.12,37.86c-8-12.07-22.85-34.77-24.86-37.5-.14-.19-.49,0-.5,0-.4.38-.32,1-.31,1.52s0,1.29,0,1.82c-.06,16.65-.13,33.29,0,49.94,0,3.33-.6,4.81-4.28,4.48a67.71,67.71,0,0,0-11.48,0c-3.56.3-4.4-1-4.38-4.4.15-24.63,0-49.27.12-73.91,0-2.53-.08-6-.11-8.63,0-2-.22-3.19,1-4.29,1.53-1.39,4.4-1.45,7.43-1.51,1,0,2,0,3.06,0s2.28.05,3.13,0c6.67-.24,9.08,2.44,12.23,8,5.19,9.26,16.18,26.57,18.63,30.12.3.43.65.39.66.38a3.73,3.73,0,0,0,1.28-1.44c.63-.93,1.21-2,1.75-2.82,6.28-10,12.57-20,18.68-30.07,1.44-2.39,3-3.62,5.89-3.47,5,.25,10,.21,15,0,2.64-.1,3.34.8,3.34,3.38q-.13,42.71,0,85.4c0,3-1.27,3.08-3.58,3-2.11,0-4,0-6,0-.82,0-4.6.05-6.89-.08a4.76,4.76,0,0,1-2.78-.76c-1-.86-1.14-2.58-1.11-4,.29-16,.12-32,.12-47.94V548Z"/><path d="M1183.64,557.67c17.4,7.66,18.21,20.18,14.8,31.06-3.51,11.22-13.14,15.15-23.58,16.28-16.74,1.8-33.61.45-50.42.77-3.69.07-2.74-2.59-2.74-4.53q-.06-34.46,0-68.91c0-5,.06-10,0-15,0-2.08.19-3.53,2.86-3.48,15.64.3,31.3-.55,46.94.5a27.72,27.72,0,0,1,12.68,4.18,22.48,22.48,0,0,1,1.84,37.19C1185.2,556.34,1184.47,557,1183.64,557.67Zm-30.71,29.4c1.48,0,5.11-.17,6.43-.17,2.73,0,4.42.1,6.89.08.66,0,4.11,0,4.77,0,7.16-.91,8.45-3.36,8.45-9s-3.65-9.52-10.45-9.6c-4,0-6.22,0-10.26,0-3.28,0-8.38,0-11.7,0-4.6,0-5.65.22-5.65,5,0,1.61.08,6.08.07,7.82,0,.82-.13,3.4.64,4.64A3.23,3.23,0,0,0,1145,587C1147.77,587,1149.75,587,1152.93,587.07Zm-.54-37c2.74-.11,6.35-.09,9.57-.09,2.24,0,4.86.23,6.94-.63a8.25,8.25,0,0,0,5.58-8c.08-4-1.86-6.56-5.32-8.2a15.84,15.84,0,0,0-6.78-1.32c-5.81,0-11.62-.06-17.42-.08-2.59,0-3.32.59-3.36,2.5a7.6,7.6,0,0,0-.13,1.22,28.85,28.85,0,0,1,0,3.48c0,6.68-.78,10.21,1.67,10.85C1145.11,550.34,1147,550.12,1152.39,550.12Z"/><path d="M1382.48,605.8c-7.9,0-14.69-.13-21.47.06-2.53.08-3.5-1.43-4.6-3.09-4.78-7.19-9.69-14.31-14.29-21.62-2.21-3.51-4.72-5.61-9.15-5.4-5.27,0-7.53-.31-8.72,1s-1,4.58-1,9.35c0,5-.22,10,.07,15,.21,3.57-.58,4.73-4.56,4.83-2,.06-3.89,0-5.84.06s-3.51,0-5.63-.07c-3.54-.1-4.49-1-4.46-4.45.18-16.62.08-33.25.08-49.88,0-11.31,0-22.62,0-33.93,0-2.2,0-3.84,3.06-3.77,15.29.35,30.62-.73,45.89.55,14.79,1.25,24.77,10.11,27.27,23.44,2.76,14.72-2.89,26.95-16.07,33.7-3.14,1.61-2.21,2.68-.83,4.67C1368.8,585.73,1375.32,595.33,1382.48,605.8ZM1323.42,545c0,4.24-.05,7.44,0,10.92,0,1.21,0,2.33,2.14,2.23,4.19-.19,7.92-.14,12.13-.06s8.27.38,12.44-.76c5.56-1.52,8.68-6.15,8.71-11.89,0-6.14-3.09-10.28-9-12.16-4.55-1.46-8.88-1.28-13.49-1.3-2.38,0-5.56,0-8,0-1.76,0-3.26.14-4.36,1.16s-.57,2.28-.59,3.76C1323.42,539.31,1323.68,542.88,1323.42,545Z"/><path d="M1215.48,559.79c0-14,.1-28-.08-41.94,0-3.28.89-4.24,4.16-4.22q30.72.2,61.44,0c3.25,0,4.61-.37,4.55,3.08,0,.72,0,1.53,0,2.3,0,.46,0,5.51-.09,8.64,0,.42.29,2.64-.36,3.67s-2.09.72-2.67.72c-1,0-2.59.06-3.08.05-2.52-.09-5.83-.12-8.27-.1-10.49.1-21,.15-31.47,0-3.13-.06-3.06.74-3.06,3.8.14,2-.07,4.23-.09,6.21,0,1.52.13,2.81,0,4.3,0,3.24,0,4,3.13,4,9-.14,10.22-.3,15.42-.33,6.48,0,13.31.12,19.85,0,3.38-.06,4.68-.14,4.44,3-.06.83,0,1.95,0,3.09,0,1.31-.07,2.92,0,4a34.82,34.82,0,0,1,0,4.26c-.13,1.39-.31,2.41-1.62,3.19s-3.48.69-5.61.73c-2.93.05-5.88.08-6.62.09-8.65.17-17.31.15-26,0-2.83,0-3.87.82-3.71,3.67a83.81,83.81,0,0,1,0,11c-.27,3.43.76,4.53,4.34,4.48,13.65-.21,27.31,0,41-.17,3.45-.05,4.74.83,4.44,4.39s.4,10.3-.19,13.08c-.17.8-1.1.85-1.39.88-2.86.36-9.07,0-12.13,0-17.32.11-34.64,0-52,.13-3.51,0-4.48-1-4.43-4.48C1215.59,587.41,1215.48,573.6,1215.48,559.79Z"/><path d="M362,245.7c-9.82,0-19.65-.08-29.47.05-2.76,0-3.78-.74-3.76-3.63q.15-29.46,0-58.91c0-3,1.17-3.59,3.84-3.58q29.73.12,59.44,0c2.77,0,3.79.8,3.77,3.68q-.15,29.44,0,58.9c0,3-1.22,3.58-3.86,3.55C382,245.64,372,245.7,362,245.7Z"/><path d="M806.7,559.93c0-14,.09-28-.08-41.93,0-3.2.75-4.41,4.1-4.16a85.53,85.53,0,0,0,12,0c3.42-.23,4.64.79,4.55,4.39-.25,9.14,0,18.3-.15,27.45-.07,3.3.58,4.7,4.31,4.59q14.22-.4,28.46,0c3.63.1,4.46-1.14,4.38-4.52-.21-9.32,0-18.64-.14-28-.06-3.07.55-4.86,3.63-4.7s6.85,0,10,0c.58,0,3.8-.31,5.4,1.13s1.19,4.47,1.19,5.53c0,3.16,0,7.19,0,10.3.11,23.63.14,47.12.38,70.74,0,4.31-1.27,5.19-5.29,5.12-2.08,0-4,0-6,0s-3.57,0-5.46-.09c-3.13.2-4-1-3.9-4,.16-9.32-.09-18.64.13-28,.09-3.53-.58-5-4.56-4.82-9.48.33-19,.27-28.47,0-3.42-.09-4.18,1.07-4.12,4.24.18,9.31-.07,18.64.13,28,.08,3.34-.67,4.85-4.34,4.57a88.11,88.11,0,0,0-12.48,0c-3.25.23-3.81-1.05-3.78-4C806.78,587.88,806.7,573.91,806.7,559.93Z"/><path d="M254.51,245.7c-9.31,0-18.63-.12-27.95.07-3.31.07-4.63-.62-4.6-4.3q.27-28.69,0-57.37c0-3.46.89-4.54,4.44-4.51q28.44.25,56.9,0c3.9,0,4.67,1.29,4.64,4.87q-.24,28.43,0,56.87c0,3.51-1,4.54-4.49,4.46C273.82,245.56,264.16,245.7,254.51,245.7Z"/><path d="M362.47,286.54c9.82,0,19.64,0,29.46,0,1.75,0,3.92-.48,3.86,2.45-.33,15.11,1.18,30.29-.75,45.32-1.41,11-10.56,18.31-21.51,18.36-13.48.05-27-.08-40.44.07-3.18,0-4.32-.82-4.3-4.16q.21-29,0-57.88c0-3.26.93-4.31,4.22-4.25C342.83,286.66,352.65,286.54,362.47,286.54Z"/><path d="M287.88,319.25c0,9.47-.24,18.95.1,28.41.16,4.37-1.43,5.2-5.4,5.13-12.47-.24-24.94-.07-37.41-.1-12.83,0-22.54-8.94-23-21.92-.44-13.61-.08-27.25-.21-40.87,0-2.65.93-3.41,3.48-3.4q29.43.12,58.85,0c3,0,3.62,1.18,3.59,3.85C287.81,300,287.88,309.61,287.88,319.25Z"/><path d="M984.31,605.76c-10.34,0-10.34,0-14.25-9.73-4.31-10.73-4.31-10.73-16.07-10.73-7.5,0-15,.16-22.48-.07-3.24-.1-5.08.57-6.13,4-1.41,4.58-3.72,8.88-5.35,13.41-.9,2.46-2.28,3.14-4.83,3.18-2,0-4,.05-5.84,0-2.44,0-4.7,0-7.14,0-3.83,0-4.11-1-2.7-4.23,10-23.16,19.81-46.39,29.69-69.6,1.49-3.51,2.84-7.1,4.51-10.52,1.34-2.74,1.41-7.38,4.3-7.86,5.66-.94,11.6-.34,17.42-.19,1.37,0,1.45,1.73,1.86,2.71,12.19,28.54,24.27,57.13,36.49,85.65,1.31,3.06,1.08,4.27-2.49,4C989,605.63,986.64,605.76,984.31,605.76Zm-49.88-38.6c7.41,0,14.16,0,20.91,0,2.06,0,2.79-.61,2-2.58-3.57-8.64-7.15-17.27-11-26.59C942.17,548.16,938.4,557.43,934.43,567.16Z"/><path d="M755,512.34c12.83-.13,23.94,3.39,33.44,11.67,2,1.75,3.1,2.38,1,4.49-.57.59-2.23,2.5-2.78,3.12-1,1.1-3.47,4.34-4.48,5.49-1.55,1.77-2.71,2.77-3.2,2.79-3.56,1.34-6.94-3.51-10.51-5.35-11.94-6.15-26-3.77-33.93,6.08-8.73,10.89-8.7,27.83.09,38.33,8.57,10.24,22.6,12.52,34.76,5.63l1.32-.71c2.92-1.54,5.25-6,8-5.25,3.09.81,5.44,4.55,8,7.1,5.45,5.39,5.55,5.56-.58,10.44-16.62,13.22-34.91,14.7-53.81,6.1-17.28-7.87-27.12-25.91-25.41-46.36,1.64-19.58,11.78-33.45,30.38-40.66A44.37,44.37,0,0,1,755,512.34Z"/><path d="M1384,513.88c7.82,0,14.62.14,21.4-.07,2.86-.08,3.64,1.83,4.72,3.65,6.45,10.83,12.88,21.67,19.58,32.95,6.78-11.21,13.38-21.92,19.74-32.76,1.61-2.75,3.34-4,6.67-3.86,5.93.3,11.89.08,18.09.08,0,2.38-1.42,3.67-2.34,5.11q-15,23.55-30,47a12,12,0,0,0-2.06,7c.09,9.65-.08,19.3.1,28.94,0,1.14.35,3.17-1.87,3.84a20.54,20.54,0,0,1-5,.26c-3.58,0-6.74,0-8.27,0s-3.32.36-4.31-.63c-1.14-1.15-.9-2.18-.92-4.5,0-3,.06-8.08-.08-11a49.35,49.35,0,0,0,.14-5.93c0-5.06-.16-10.71-1.56-15.32-1.85-6.08-5.41-11-9.55-16.62C1399.76,540.1,1392.47,527.17,1384,513.88Z"/><path d="M761.29,795.44c-6.58,9.74-13.15,19.48-19.95,29.57l-19.93-29.65c-1.19,1.78-.76,3.27-.77,4.63,0,12-.39,24-.09,36,0,4.3.34,5.07-3.68,5h-5.75c-2.57-.05-2.41-.74-2.4-3.1q.1-30.21,0-60.41c0-2.27.65-3.09,3.07-3.33,6.25-.61,10.83.53,14.15,6.9,4.34,8.32,10,16,15.52,24.51,6-9.22,11.55-17.84,17.14-26.45a12.1,12.1,0,0,1,13.61-4.83c1.78.53,1.76,1.75,1.76,3.07,0,20.14,0,40.27,0,60.41,0,2.27-.38,3.09-2.86,3.14-1.15,0-3.63.08-5.14,0-4-.13-3.77-.71-3.68-4.76.27-11.81.1-23.62.1-35.44v-4.84Z"/><path d="M1076.63,806.34c11.08,6.43,14.6,14,10.57,23.21-3.42,7.78-10.48,10.69-18.16,11.14-10.94.63-21.94.22-32.91.32-2.18,0-2.87-.94-2.87-3q.06-30.4,0-60.81c0-1.68.35-3,2.4-3,11.77.4,23.66-1.37,35.3,1.15,9.93,2.15,14.54,9,13.59,18.91C1084.16,798.49,1082.66,800.8,1076.63,806.34Zm-18.34,6c-13.63,0-13.63,0-13.62,11.71,0,1.16.06,2.33,0,3.49-.11,2,.66,3.2,2.81,3.19,7.15,0,14.35.6,21.4-.86,4.12-.85,7.42-3.07,7.65-7.93.22-4.58-2.11-7.47-7.16-8.77A40.9,40.9,0,0,0,1058.29,812.32Zm-2.52-27.14c-11.11-.11-11.11-.11-11.09,11,0,1.16,0,2.32,0,3.48,0,1.63.66,2.49,2.34,2.47,6-.07,12,.23,17.91-.31,5.17-.46,7.94-4,7.8-8.65-.13-4.35-3-7.35-8-7.94A76.27,76.27,0,0,0,1055.77,785.18Z"/><path d="M881.77,795.31c0,14.07-.24,27.52.12,41,.13,4.84-2.16,4.87-5.68,4.8-3.36-.06-5.88.29-5.8-4.69.31-18.62.07-37.25.21-55.87,0-1.12-.12-2.76,0-4a2.33,2.33,0,0,1,1.95-2.43,31.66,31.66,0,0,1,5.42-.16,6.13,6.13,0,0,1,5.13,2.7c10,13.1,20.14,26,30.25,39,.32.4,3,3.16,3.21,1.64.38-2.46.09-9,.09-11.54v-24c0-7.7,2-9.14,9.73-7.6,2.12.43,2.13,1.69,2.13,3.22q0,30.18,0,60.37c0,2.27-.66,3.16-3.09,3.3-4.58.27-8-.65-11-4.78-9-12.35-18.57-24.3-27.94-36.39C885.32,798.37,884.38,796.56,881.77,795.31Z"/><path d="M792.7,677.42c0,15-.31,28.46.15,41.88.19,5.39-2.65,4.84-6.06,4.88s-6.2.41-6.09-4.89c.36-18.12-.18-36.25,0-54.37,0-1.08,0-3.32,0-4.63,0-.43-.14-2.24,1.32-2.66a22.7,22.7,0,0,1,9.13-.11c1.67.32,2.73,2.14,3.55,3.23,9.21,12.21,18.65,24.24,28,36.33.19.24,4.34,4.68,4.69,4.18.8-1.17.39-3.91.36-7.36-.1-8.65-.23-22.86-.18-30.69,0-.91,0-2.47.05-3.45s.16-1.14,1.14-1.44a14.49,14.49,0,0,1,9.29.14c.81.32.9.47.93,1.29s0,2.48,0,3.31c0,14.29,1.07,44,.4,56.24-.19,3.41-1.33,4.45-2,4.54-2.18.13-4.64.13-6.81.13-1.49,0-2.36-.76-3.61-2.43-8.86-11.85-18-23.46-27.09-35.15C797.77,683.79,795.7,681.22,792.7,677.42Z"/><path d="M856.94,807.76c-.12,20.31-14.87,34.36-35.94,34.24-19.18-.12-33.49-15-33.41-34.63.07-19.38,15.14-34.23,34.67-34.16C842.35,773.28,857.06,787.93,856.94,807.76ZM822.5,831c12.52-.07,22.17-10.21,22.17-23.29S834.44,784.08,822,784.19s-22.22,10.54-22.18,23.43C799.86,820.85,809.79,831.09,822.5,831Z"/><path d="M1582.52,691.29c-.1,19.84-14.85,34.11-35.13,34s-34.26-14.81-34.11-35.47c.13-18.63,15.73-33.53,35-33.44C1568.19,656.45,1582.62,671.17,1582.52,691.29Zm-12.28-.06c0-13.38-9.56-23.69-22.25-23.89s-22.33,10.22-22.46,24.19a22.76,22.76,0,0,0,22.4,22.68C1560.63,714.29,1570.19,704.44,1570.24,691.23Z"/><path d="M1074.61,724.14c-4.27,0-7.57-.15-10.85.05a5.5,5.5,0,0,1-5.34-2.83c-3.26-4.82-6.93-9.38-9.91-14.35-2.67-4.46-5.85-6.38-11.24-6-4.73.34-6.64,0-7.18,2.11-.33,1.29-.13,2.88-.18,5.76-.07,3.83-.25,7.27-.16,10.92s-1,4.44-4.55,4.35a33,33,0,0,0-4,0c-2.46.21-3.58-.57-3.57-3.31q.14-29.67,0-59.34c0-3,1.22-3.64,3.88-3.61,10,.12,20-.15,29.94.17,11.24.36,18.22,6.16,20.39,16.25,2.23,10.37-1.79,18.63-12,23.52-3,1.42-2.22,2.43-.86,4.32C1064,709.15,1069,716.2,1074.61,724.14Zm-33.47-34c3,0,6,.24,9,0a11.06,11.06,0,0,0,10.28-10.4c.25-5.13-3-8.94-8.66-10.63-3.76-1.12-7.58-.73-11.39-.75-10.66-.06-10.66,0-10.66,10.61C1029.68,690.31,1029.68,690.31,1041.14,690.18Z"/><path d="M955.32,691.14c0-9.65.11-19.3-.06-28.94,0-3.21.93-4.36,4.24-4.33,13.65.15,27.31.24,41,0,4.52-.09,4.11,2.39,4.16,5.32s.19,5.33-4.24,5.17c-9.81-.36-19.64,0-29.46-.17-2.93,0-4,.7-4.1,3.86-.33,13.18-.44,13.18,12.7,13.18,5.66,0,11.34.28,17-.09,4.74-.31,4,2.68,4,5.43s1.06,5.78-3.81,5.6c-8.48-.3-17,0-25.46-.14-3.2-.08-4.31.81-4.36,4.16-.23,13.72-.34,13.72,13.36,13.72,7,0,14,.06,21-.06,2.08.09,3.48.47,3.66,2.28a31,31,0,0,1-.07,6c-.29,1.46-1.68,2.1-3.67,2.09-14,0-28-.17-42,0-3.22,0-3.89-1.23-3.85-4.11C955.4,710.44,955.32,700.79,955.32,691.14Z"/><path d="M1261,724.14c-6.83,0-13.66-.11-20.48.05-3,.07-4.44-.55-4.41-4.05.16-19.3.13-38.6,0-57.9,0-3.16.83-4.41,4.19-4.37,13.82.15,27.64.2,41.45,0,5-.07,3.46,3.24,3.65,5.75s.39,4.8-3.64,4.69c-10-.29-20,0-30-.15-2.88,0-4.07.61-4.15,3.82-.35,13.22-.47,13.22,12.66,13.22,5,0,10,.16,15-.05,3.94-.17,6.37.05,6.22,5.35-.13,4.76-1.58,5.84-6,5.65-7.81-.33-15.65,0-23.47-.15-3.11-.07-4.35.68-4.41,4.11-.23,13.77-.35,13.77,13.33,13.77,7,0,14,.17,21-.06,4.85-.16,3.59,3.15,3.75,5.74s.18,4.84-3.75,4.67C1275,723.92,1268,724.14,1261,724.14Z"/><path d="M1206.09,831.26c-1.89-5-4.58-6.73-9.85-6.36-7,.49-14,.22-21,.06-2.37-.05-3.69.7-4.42,3-.61,1.89-1.56,3.66-2.33,5.5-3.32,8-3.31,7.89-11.83,7.64-2.93-.08-3.4-.76-2.22-3.42,5.14-11.54,10.11-23.15,15.16-34.73,3.66-8.38,7.61-16.64,10.87-25.17,1.69-4.4,4.81-3.64,8.06-3.82,3.06-.16,5.06.36,6.5,3.73,3.67,8.35,11.93,26.5,16.22,36.54.58,1.36,5.45,13,6.48,15.89.36,1,3.17,6,4.27,8.74.38.93.14,1.57-.3,1.82-1.13.66-3.12.46-5.76.45-2,0-3.44.42-5.1-1C1208.69,838.27,1206.53,832.44,1206.09,831.26Zm-18.44-42.81c-3.91,9.15-7.33,17.15-11,25.71,6.76,0,12.74-.08,18.71,0,2.61,0,3.23-.65,2.11-3.13C1194.29,804,1191.25,796.76,1187.65,788.45Z"/><path d="M1391.18,697.16c5.31-12.17,10.85-24.24,15.81-36.55,1.84-4.56,5.13-3.06,8.18-3.4,2.88-.31,4.76.28,6.11,3.43,8.54,20,17.31,39.89,26.1,59.77,1.21,2.74,1,3.72-2.3,3.8-8.65.19-8.65.33-12.11-7.94-3.4-8.11-3.4-8.11-12-8.11-6.32,0-12.64.12-19-.06-2.77-.08-4.38.72-5.08,3.48a27.38,27.38,0,0,1-1.77,4.11c-1,2.35-2.89,6.59-5.84,7.81-3.72,1.52-9.16.46-9.15-.52C1380.26,718.67,1389.68,700.59,1391.18,697.16Zm22.75-25.51c-3.55,8.31-6.6,15.65-9.82,22.92-1.34,3-.42,2.87,4.92,3.06,1.74.07,3.28,0,4.93,0s3.48.1,5.24.07c4.41,0,6-.07,4.71-3.12C1420.72,687.28,1417.56,680,1413.93,671.65Z"/><path d="M765.84,681c0,5.15,0,10.31,0,15.46-.29,22.71-15.66,31.06-34.85,28.18-13.74-2.06-21.56-11.55-22-26.06-.39-12.3,0-24.61-.13-36.92,0-2.75.83-3.74,3.69-3.82,8.22-.24,8.21-.37,8.21,7.68q0,14,0,27.94a44,44,0,0,0,.24,6c1.46,10.07,8.2,15.37,18.49,14.67,8.66-.59,14.25-6.93,14.34-16.61q.18-17.46,0-34.92c0-3.22.51-4.87,4.29-4.74,9.3.31,7.6-.66,7.73,7.7C765.91,670.71,765.84,675.87,765.84,681Z"/><path d="M1348.53,656.85a35.91,35.91,0,0,1,20.26,6c2.35,1.51,3,2.8,1.1,5-.45.64-.9,1.19-1.34,1.8s-.89,1.21-1.28,1.84c-1.31,2.37-2.64,2.2-4.73.78-4.9-3.32-10.29-5.46-16.37-5.05-5.25.35-9.24,3.26-9.55,7.18-.39,4.93,3.06,7,7,8.47,6.52,2.45,13.61,3.18,19.89,6.35,6,3.05,9.84,7.53,10,14.78.21,7.89-2.53,14-9.51,17.82-6.07,3.36-12.7,3.82-19.39,3A42.26,42.26,0,0,1,1325,717a4,4,0,0,1-1.07-4.76,11.23,11.23,0,0,1,3.36-4.07,4.08,4.08,0,0,1,5.14.18,26.65,26.65,0,0,0,20.51,5.93c4.28-.49,7.76-2.09,8.58-6.86.86-5-2.22-7.4-6.32-8.75-6.3-2.08-12.82-3.53-19-5.94-9.9-3.87-13.9-12.62-10.51-22.64,2.59-7.69,8.64-11.51,16.39-12.81A57.74,57.74,0,0,1,1348.53,656.85Z"/><path d="M1107.55,657a34.6,34.6,0,0,1,20.47,5.88c.79.5,2.75,1.95,2.25,3.54-.61,1.94-2.18,5-4,6.25a3.41,3.41,0,0,1-3.28-.1c-4.9-3.32-11.39-5.61-17.46-5.28-5.29.28-9.23,3.09-9.64,7.07-.5,4.94,2.81,7.2,6.86,8.5,5.37,1.73,10.93,2.91,16.23,4.82,12.41,4.46,17.2,14.33,12.38,25.56-3.4,7.94-10.47,10.89-18.41,11.74-10.72,1.15-20.36-2-29.09-8.23-.23-.17-2-1.47-1.73-3.07.43-2.37,3.21-5.43,4.5-6.6a3.85,3.85,0,0,1,3.83-1.09c6,2,16.33,9.06,22.06,8.27,4.35-.6,7.72-2.53,8.4-7.18.73-5-2.8-7.21-6.76-8.52-5.35-1.78-11-2.86-16.25-4.78-13.69-4.94-18.38-18.93-9.87-29.27C1093.09,658.31,1100.05,656.5,1107.55,657Z"/><path d="M1338.5,842c-21.3,0-35.9-16.45-34-38.35,1.65-19.4,19.87-33,39.69-30a38.18,38.18,0,0,1,16.91,6.76c3,2.12,4.15,2.41,1.06,6.27-.24.3-1.71,2.14-1.84,2.36-2.69,3.47-3.88,2.94-7.12.44-7.71-5.94-16.28-7.34-25.14-2.38-7.7,4.31-12.37,14-11.26,22.88,1.31,10.45,7.28,18,16.45,20.38,8,2.11,15.27,0,21.36-5.31,3.13-2.73,4.71-1.94,6-.29.92,1.19,1.93,2.68,2.74,3.65,2.32,2.89.17,3.94-1.46,5.2C1354.83,839.6,1347.91,842,1338.5,842Z"/><path d="M912.11,707.91c6.07-15.51,11.91-30.49,17.78-45.45a16.43,16.43,0,0,1,2.43-4.29c2.63-2.76,8.2-1.2,10.87-.07,1.27,1.4.27,2.38-.16,3.45q-8.84,21.69-17.75,43.33c-2.21,5.38-4.61,10.68-6.58,16.14-1.07,3-2.89,3.74-5.69,3.41s-6.21,1.16-7.93-3.12c-8-19.87-16.23-39.65-24.48-59.42-1.3-3.1-.74-4.1,2.7-4,.86,0,1.6,0,2.35,0,.92,0,3.16,0,4.07-.06,3.13-.11,2.93,1.07,4,3.79,5.48,14.25,11.15,28.44,16.77,42.64C910.88,705.34,911.4,706.36,912.11,707.91Z"/><path d="M1477.15,708.23l15.06-38.33c.55-1.4,1.09-2.79,1.63-4.18,3.16-8,3.16-7.84,11.56-7.87,4,0,4,1.38,2.73,4.37-5.16,12.26-10.2,24.56-15.28,36.86-2.91,7.06-6,14.07-8.63,21.24-1.29,3.54-3.42,4.36-6.81,4.17-3.15-.18-5.84.21-7.46-3.85-7.81-19.61-16-39.08-24.13-58.55-1.29-3.08-1.16-4.27,2.71-4.24,8.71.08,8.75-.12,12,8.1C1465.91,679.53,1471.23,693.15,1477.15,708.23Z"/><path d="M972.72,813.27c-.05,7.72-.11,15.25-.05,23,0,4.12-.08,4.66-3.8,4.62H964.4c-4.45,0-3.81-1.24-3.76-5.18.21-15.12,0-30.25.17-45.38.06-3.9-1.49-4.93-5.48-4.91-4.31,0-7.82-.06-12,0-2.42.07-3.53-.6-3.67-3.32-.42-7.86-.55-7.85,7.52-7.85,14,0,27.95.2,41.92-.12,4.51-.1,4.8,2,4.62,5.38-.16,3.1.73,6.51-4.52,6-4-.4-7.91-.09-12-.13-3.43-.19-4.71,1-4.61,4.53C972.87,797.64,972.72,805.46,972.72,813.27Z"/><path d="M1203.46,696.61c0,7.82-.16,15.64.07,23.46.1,3.36-1,4-4.27,4.09-.62,0-1.34,0-2,0s-1.24,0-2,0c-3.23,0-3.88-1-3.86-4,.12-15.64-.05-31.29.14-46.93,0-3.62-.77-5.15-4.66-4.83-2.32,0-4.17.06-6.53.06-1.79,0-3.9,0-5.95.08-4.19.33-4.15-2.15-3.92-5,.21-2.53-1.27-5.79,3.69-5.72q23.22.32,46.45,0c4.87-.07,3.69,3,3.81,5.62s.77,5-3.82,5.09c-1.9-.09-4-.09-5.95-.1-2.36,0-4-.11-7,0-3.21-.16-4.37.82-4.26,4.2C1203.62,680.62,1203.46,688.62,1203.46,696.61Z"/><path d="M1100.65,807.51c0-9.64.14-19.28-.08-28.91-.08-3.54.44-4.75,3.87-4.6.64,0,1.71,0,2.26,0h2.13c3.58,0,3.89,1.38,3.86,4.5-.13,15.46.09,30.91-.16,46.36-.06,4.14,1,5.42,5.24,5.27,8.63-.33,17.29.14,25.93-.19,1.52-.12,3.69-.14,3.76,1.47.09,1.94,0,5.43,0,7.55s-1.49,2-3.39,2c-13.23-.13-26.53-.07-39.66.1-3.3,0-3.81-1.34-3.77-4.15C1100.72,827.12,1100.65,817.31,1100.65,807.51Z"/><path d="M1608.34,691.05c0,8.8,0,17.59,0,26.39,0,5.89.48,6.54-2.81,6.62-.93,0-3.67-.06-5.3-.06-4.67-.1-3.67-1.22-3.8-5.39,0-7.64.09-15.26.09-22.89,0-11.29.21-22.58-.09-33.86-.14-5.3,3.2-4.33,6.24-4.35s6-.84,5.78,4.17C1608.09,671.46,1608.34,681.26,1608.34,691.05Z"/><path d="M1158.36,690.75c0,9.65-.14,19.31.08,29,.07,3.47-.9,4.5-4.46,4.46l-2.09,0c-.74,0-1.29,0-2.4,0-2,0-3-.52-3-2.78q.08-30.21,0-60.41c0-2.05.62-3.18,2.83-3,.83.06,1.67,0,2.5,0,6.54,0,6.55,0,6.55,6.36Z"/><path d="M867.78,691c0,9.64-.11,19.27.06,28.9,0,1.73.17,3.4-1.47,3.76a44.26,44.26,0,0,1-9.39.06c-1.65-.32-1.31-2.5-1.29-4.45.22-18.92.3-37.86,0-56.79-.1-5.65,3.28-4.41,6.44-4.59,3.45-.2,6-.18,5.78,4.72C867.5,672.08,867.78,681.56,867.78,691Z"/><path d="M1275.65,493.58c-10,7.42-18.38,17.29-32.8,12.5,4.72-6.14,9.52-12.35,14.27-18.61,1.07-1.41,2.13-1.09,3.46-.49C1265.39,489.14,1270.24,491.22,1275.65,493.58Z"/><path d="M1261.8,652.48c-1.9-.4-3.91.64-4.61-.71s1.1-2.52,1.94-3.68c1-1.34,2-2.62,3-3.93,4.66-6.09,6.33-6.38,12.7-2.25.81.53,2.24,1.22,1.05,2.07C1271.34,647.25,1267.89,652.57,1261.8,652.48Z"/><path d="M1244.91,794.37c0,15-.31,28.46.15,41.88.18,5.4-2.65,4.85-6.06,4.88s-6.2.42-6.1-4.88c.37-18.12-.17-36.25,0-54.38,0-1.07,0-3.31,0-4.62,0-.44-.14-2.25,1.32-2.67a22.7,22.7,0,0,1,9.13-.11c1.67.33,2.73,2.14,3.55,3.23,9.21,12.21,18.65,24.24,28,36.34.18.24,4.34,4.68,4.68,4.17.81-1.17.4-3.9.36-7.36-.09-8.65-.22-22.86-.18-30.69,0-.91,0-2.47.06-3.45s.15-1.14,1.13-1.43a14.52,14.52,0,0,1,9.3.14c.8.32.89.46.93,1.28s0,2.48,0,3.31c0,14.29,1.07,44,.4,56.25-.19,3.4-1.34,4.44-2,4.54-2.18.12-4.64.12-6.81.12-1.49,0-2.36-.75-3.61-2.43-8.86-11.84-18-23.45-27.1-35.14C1250,800.74,1247.91,798.17,1244.91,794.37Z"/></g></g></svg>