<?xml version="1.0" encoding="utf-8"?>
<!-- Generator: Adobe Illustrator 26.0.1, SVG Export Plug-In . SVG Version: 6.00 Build 0)  -->
<svg version="1.1" id="Layer_2" xmlns="http://www.w3.org/2000/svg" xmlns:xlink="http://www.w3.org/1999/xlink" x="0px" y="0px"
	 viewBox="0 0 841.9 367.9" style="enable-background:new 0 0 841.9 367.9;" xml:space="preserve">
<style type="text/css">
	.st0{fill:url(#SVGID_1_);}
	.st1{fill:url(#SVGID_00000157272666817213830050000001183917492984764589_);}
	.st2{fill:url(#SVGID_00000115472973582959938000000006603964414388018877_);}
	.st3{fill:url(#SVGID_00000111888355440427422190000000944649952040721067_);}
	.st4{fill:url(#SVGID_00000032647640123483468090000010058429965177301162_);}
	.st5{fill:url(#SVGID_00000110471902797447933100000004770484607839180929_);}
	.st6{fill:url(#SVGID_00000085966375208239033790000006030598771894273194_);}
	.st7{fill:url(#SVGID_00000172436344985491394890000012947658564054227624_);}
	.st8{fill:url(#SVGID_00000137830336124861396360000001960867408416086454_);}
	.st9{fill:url(#SVGID_00000173150860771796441970000006327890222448579975_);}
	.st10{fill:url(#SVGID_00000005239015415835052520000006008493732129520520_);}
	.st11{fill:url(#SVGID_00000074440243603837169100000013143253026394781371_);}
	.st12{fill:#FFFFFF;stroke:#000000;stroke-miterlimit:10;}
</style>
<g>
	<polygon points="701,178.3 758.7,259.7 696.1,259.7 670.5,223.9 668.6,223.9 643.2,259.7 579.7,259.7 637.9,178.3 579.7,96.8 
		643.2,96.8 668.8,132.9 670.2,132.9 696.1,96.8 758.7,96.8 	"/>
	
		<linearGradient id="SVGID_1_" gradientUnits="userSpaceOnUse" x1="311.1379" y1="191.7242" x2="496.3887" y2="191.7242" gradientTransform="matrix(1 0 0 -1 0 370)">
		<stop  offset="0" style="stop-color:#253C97"/>
		<stop  offset="0.46" style="stop-color:#7C318D"/>
		<stop  offset="1" style="stop-color:#E62583"/>
	</linearGradient>
	<polygon class="st0" points="311.1,96.8 366.3,96.8 402.8,148.5 404.7,148.5 441.2,96.8 496.4,96.8 496.4,259.7 441.9,259.7 
		441.9,174.6 440.5,174.6 404.7,221.8 402.8,221.8 367,174.6 365.6,174.6 365.6,259.7 311.1,259.7 	"/>
	
		<linearGradient id="SVGID_00000117671275037646636540000009041132770279049603_" gradientUnits="userSpaceOnUse" x1="518.4967" y1="191.7242" x2="572.9582" y2="191.7242" gradientTransform="matrix(1 0 0 -1 0 370)">
		<stop  offset="0" style="stop-color:#253C97"/>
		<stop  offset="0.46" style="stop-color:#7C318D"/>
		<stop  offset="1" style="stop-color:#E62583"/>
	</linearGradient>
	
		<rect x="518.5" y="96.8" style="fill:url(#SVGID_00000117671275037646636540000009041132770279049603_);" width="54.5" height="162.9"/>
	
		<linearGradient id="SVGID_00000047746132300517413930000006810484220069003451_" gradientUnits="userSpaceOnUse" x1="676.1982" y1="277.4362" x2="674.0524" y2="98.4868" gradientTransform="matrix(1 0 0 -1 0 370)">
		<stop  offset="0" style="stop-color:#253C97"/>
		<stop  offset="0.46" style="stop-color:#7C318D"/>
		<stop  offset="1" style="stop-color:#E62583"/>
	</linearGradient>
	<polygon style="fill:url(#SVGID_00000047746132300517413930000006810484220069003451_);" points="707,173.7 764.7,255.2 
		702.1,255.2 676.5,219.4 674.6,219.4 649.3,255.2 585.7,255.2 643.9,173.7 585.7,92.3 649.3,92.3 674.9,128.4 676.3,128.4 
		702.1,92.3 764.7,92.3 	"/>
	
		<linearGradient id="SVGID_00000009551155194684453170000008133597183271930802_" gradientUnits="userSpaceOnUse" x1="104.2325" y1="190.2131" x2="289.4833" y2="190.2131" gradientTransform="matrix(1 0 0 -1 0 370)">
		<stop  offset="0" style="stop-color:#253C97"/>
		<stop  offset="0.46" style="stop-color:#7C318D"/>
		<stop  offset="1" style="stop-color:#E62583"/>
	</linearGradient>
	<polygon style="fill:url(#SVGID_00000009551155194684453170000008133597183271930802_);" points="104.2,98.3 159.4,98.3 195.9,150 
		197.8,150 234.3,98.3 289.5,98.3 289.5,261.2 235,261.2 235,176.1 233.6,176.1 197.8,223.3 195.9,223.3 160.1,176.1 158.7,176.1 
		158.7,261.2 104.2,261.2 	"/>
	
		<linearGradient id="SVGID_00000150797340215192143330000015762006772375789464_" gradientUnits="userSpaceOnUse" x1="800.657" y1="309.4875" x2="814.62" y2="309.4875" gradientTransform="matrix(1 0 0 -1 0 370)">
		<stop  offset="0" style="stop-color:#253C97"/>
		<stop  offset="0.46" style="stop-color:#7C318D"/>
		<stop  offset="1" style="stop-color:#E62583"/>
	</linearGradient>
	<polygon style="fill:url(#SVGID_00000150797340215192143330000015762006772375789464_);" points="805.3,54.9 800.7,66.2 
		814.6,58.2 	"/>
	
		<linearGradient id="SVGID_00000099636354918257431440000005796313273687310228_" gradientUnits="userSpaceOnUse" x1="799.2668" y1="251.981" x2="828.4469" y2="251.981" gradientTransform="matrix(1 0 0 -1 0 370)">
		<stop  offset="0" style="stop-color:#253C97"/>
		<stop  offset="0.46" style="stop-color:#7C318D"/>
		<stop  offset="1" style="stop-color:#E62583"/>
	</linearGradient>
	<polygon style="fill:url(#SVGID_00000099636354918257431440000005796313273687310228_);" points="828.4,109.5 828.4,126.5 
		799.3,120.9 	"/>
	
		<linearGradient id="SVGID_00000039132952480804586830000010164274264633090992_" gradientUnits="userSpaceOnUse" x1="748.4018" y1="327.6363" x2="773.5472" y2="327.6363" gradientTransform="matrix(1 0 0 -1 0 370)">
		<stop  offset="0" style="stop-color:#253C97"/>
		<stop  offset="0.46" style="stop-color:#7C318D"/>
		<stop  offset="1" style="stop-color:#E62583"/>
	</linearGradient>
	<polygon style="fill:url(#SVGID_00000039132952480804586830000010164274264633090992_);" points="773.5,23.9 748.4,60.9 751,34 	
		"/>
	
		<linearGradient id="SVGID_00000037670123647357731890000014685400041668842683_" gradientUnits="userSpaceOnUse" x1="822.1454" y1="195.215" x2="835.4888" y2="195.215" gradientTransform="matrix(1 0 0 -1 0 370)">
		<stop  offset="0" style="stop-color:#253C97"/>
		<stop  offset="0.46" style="stop-color:#7C318D"/>
		<stop  offset="1" style="stop-color:#E62583"/>
	</linearGradient>
	<polygon style="fill:url(#SVGID_00000037670123647357731890000014685400041668842683_);" points="834.3,169.9 822.1,170.7 
		835.5,179.7 	"/>
	
		<linearGradient id="SVGID_00000008143253439073830190000008144295832900299163_" gradientUnits="userSpaceOnUse" x1="4.89" y1="138.3205" x2="20.6059" y2="138.3205" gradientTransform="matrix(1 0 0 -1 0 370)">
		<stop  offset="0" style="stop-color:#253C97"/>
		<stop  offset="0.46" style="stop-color:#7C318D"/>
		<stop  offset="1" style="stop-color:#E62583"/>
	</linearGradient>
	<polygon style="fill:url(#SVGID_00000008143253439073830190000008144295832900299163_);" points="9.6,236 20.6,230.7 4.9,227.3 	
		"/>
	
		<linearGradient id="SVGID_00000097471123207345839710000000798666052298330021_" gradientUnits="userSpaceOnUse" x1="18.8681" y1="75.2455" x2="48.0784" y2="75.2455" gradientTransform="matrix(1 0 0 -1 0 370)">
		<stop  offset="0.12" style="stop-color:#363795"/>
		<stop  offset="0.71" style="stop-color:#D3489A"/>
	</linearGradient>
	<polygon style="fill:url(#SVGID_00000097471123207345839710000000798666052298330021_);" points="25.1,305.4 18.9,289.6 
		48.1,284.1 	"/>
	
		<linearGradient id="SVGID_00000110467584078429425140000006690371995914192057_" gradientUnits="userSpaceOnUse" x1="71.8185" y1="44.2066" x2="81.8373" y2="44.2066" gradientTransform="matrix(1 0 0 -1 0 370)">
		<stop  offset="0" style="stop-color:#253C97"/>
		<stop  offset="0.46" style="stop-color:#7C318D"/>
		<stop  offset="1" style="stop-color:#E62583"/>
	</linearGradient>
	<polygon style="fill:url(#SVGID_00000110467584078429425140000006690371995914192057_);" points="81.7,331.7 81.8,319.5 
		71.8,332.1 	"/>
	
		<linearGradient id="SVGID_00000113342588464206184480000014344892262851666365_" gradientUnits="userSpaceOnUse" x1="125.6604" y1="37.5878" x2="142.8572" y2="37.5878" gradientTransform="matrix(1 0 0 -1 0 370)">
		<stop  offset="0" style="stop-color:#253C97"/>
		<stop  offset="0.46" style="stop-color:#7C318D"/>
		<stop  offset="1" style="stop-color:#E62583"/>
	</linearGradient>
	<polygon style="fill:url(#SVGID_00000113342588464206184480000014344892262851666365_);" points="125.7,354.2 135.3,310.6 
		142.9,336.5 	"/>
	<polygon points="111,93.1 166.2,93.1 202.7,144.7 204.6,144.7 241.1,93.1 296.3,93.1 296.3,256 241.8,256 241.8,170.8 240.4,170.8 
		204.6,218 202.7,218 166.9,170.8 165.5,170.8 165.5,256 111,256 	"/>
	<polygon points="317.2,93.1 372.3,93.1 408.9,144.7 410.8,144.7 447.3,93.1 502.4,93.1 502.4,256 448,256 448,170.8 446.6,170.8 
		410.8,218 408.9,218 373,170.8 371.6,170.8 371.6,256 317.2,256 	"/>
	<rect x="524.5" y="93.1" width="54.5" height="162.9"/>
	<polygon points="806.8,50.7 802.2,62 816.1,54 	"/>
	<polygon points="830,105.3 830,122.3 800.8,116.7 	"/>
	<polygon points="776.6,13.6 751.4,50.6 754,23.8 	"/>
	<polygon points="835.9,165.7 823.7,166.5 837,175.5 	"/>
	<polygon points="80.6,329.2 80.7,317 70.7,329.5 	"/>
	<polygon points="25.6,300.9 19.4,285.1 48.6,279.6 	"/>
	<polygon points="122.4,352.4 132.1,308.7 139.6,334.6 	"/>
	<polygon points="11.1,233 22.1,227.7 6.4,224.3 	"/>
	<g>
		<path class="st12" d="M81.8,231.2v-14.5h12.9v36.5l-12.9,0.1c-7.8-11-14.3-20.9-19.7-20.9c-1.9,0-3.2,1.2-3.2,3
			c0,2,1.3,2.9,3.2,2.9H66v16.3h-4c-9.4,0-16.7-6.7-16.7-19.3c0-11.7,5-20,15.9-20c8.2,0,13.8,8.1,20.2,15.7L81.8,231.2L81.8,231.2z
			"/>
		<path class="st12" d="M75.1,211.1h-9.7c-12,0-20.2-6.8-20.2-18.8c0-10.5,7.9-18.8,20.2-18.8h9.7c13,0,20.3,8.3,20.3,18.8
			C95.4,204.3,87.8,211.1,75.1,211.1L75.1,211.1z"/>
		<path class="st12" d="M78.5,189.8H62.1c-1.9,0-3.2,0.7-3.2,2.5c0,1.8,1.3,2.5,3.2,2.5h16.5c1.9,0,3.2-0.8,3.2-2.5
			C81.7,190.6,80.4,189.8,78.5,189.8z"/>
		<path class="st12" d="M81.8,145.5V131h12.9v36.5l-12.9,0.1c-7.8-11-14.3-20.9-19.7-20.9c-1.9,0-3.2,1.2-3.2,3c0,2,1.3,2.9,3.2,2.9
			H66V169h-4c-9.4,0-16.7-6.7-16.7-19.3c0-11.7,5-20,15.9-20c8.2,0,13.8,8.1,20.2,15.7L81.8,145.5L81.8,145.5z"/>
		<path class="st12" d="M70.4,94.5c2.5-2,5.6-3.2,8.9-3.2c9.7,0,15.4,6,15.4,15.9v19.3l-12.9,0.1v-14.7c0-1.5-0.8-2.6-2.4-2.6
			c-1.5,0-2.6,1.1-2.6,2.6v7.6H63.9v-7.6c0-1.5-1-2.6-2.6-2.6c-1.7,0-2.4,1.1-2.4,2.6v14.7L46,126.4v-19.3c0-9.9,5.7-15.9,15.4-15.9
			C64.8,91.2,67.9,92.4,70.4,94.5L70.4,94.5z"/>
	</g>
</g>
</svg>
