<svg width="235" height="115" viewBox="0 0 235 115" fill="none" xmlns="http://www.w3.org/2000/svg">
<g clip-path="url(#clip0_85_11)">
<path d="M11.5639 13.0793C16.3456 5.01616 23.6161 0.984372 33.373 0.984372C38.1552 0.984372 42.5781 2.25762 46.6451 4.79975C50.7098 7.34431 53.891 10.919 56.1863 15.5263C59.4372 9.47884 64.508 5.15979 71.3956 2.56768C74.1687 1.51279 77.3006 0.983887 80.7936 0.983887C84.2843 0.983887 87.6314 1.68165 90.8372 3.07184C94.0407 4.46446 96.8858 6.45536 99.3741 9.04699C104.73 14.8062 107.409 22.0051 107.409 30.6447V74.1273H96.6479V30.9319C96.6479 24.9815 94.9734 20.086 91.6259 16.2454C88.2764 12.5984 84.0213 10.7744 78.8561 10.7744C73.4042 10.7744 68.8594 12.5518 65.2256 16.1018C61.3989 19.7512 59.4865 24.7413 59.4865 31.076V74.1273H48.7253V30.9319C48.7253 24.9815 47.0508 20.086 43.7038 16.2454C40.3543 12.5984 36.0992 10.7744 30.934 10.7744C25.4816 10.7744 20.9373 12.5518 17.3035 16.1018C13.4763 19.7512 11.5644 24.7413 11.5644 31.076V74.1273H0.802734V2.13631H11.5639V13.0793Z" fill="black"/>
<path d="M123.192 13.0793C127.974 5.01616 135.244 0.984372 145.001 0.984372C149.783 0.984372 154.206 2.25762 158.273 4.79975C162.338 7.34431 165.519 10.919 167.814 15.5263C171.065 9.47884 176.136 5.15979 183.024 2.56768C185.797 1.51279 188.928 0.983887 192.422 0.983887C195.912 0.983887 199.259 1.68165 202.465 3.07184C205.669 4.46446 208.514 6.45536 211.002 9.04699C216.358 14.8062 219.037 22.0051 219.037 30.6447V74.1273H208.276V30.9319C208.276 24.9815 206.601 20.086 203.254 16.2454C199.904 12.5984 195.649 10.7744 190.484 10.7744C185.032 10.7744 180.487 12.5518 176.854 16.1018C173.027 19.7512 171.114 24.7413 171.114 31.076V74.1273H160.353V30.9319C160.353 24.9815 158.679 20.086 155.332 16.2454C151.982 12.5984 147.727 10.7744 142.562 10.7744C137.11 10.7744 132.565 12.5518 128.931 16.1018C125.104 19.7512 123.192 24.7413 123.192 31.076V74.1273H112.431V2.13631H123.192V13.0793H123.192Z" fill="black"/>
<path d="M224.059 2.13623H234.82V74.1277H224.059V2.13623Z" fill="black"/>
<path d="M6.46925 112.74H6.50261L9.11566 106.07H10.4928V114.28H9.38595V108.128L9.35211 108.122L6.87397 114.279H6.10417L3.55302 107.919L3.51966 107.925V114.28H2.41235V106.07H3.86781L6.46925 112.74Z" fill="black"/>
<path d="M16.8301 110.474H13.47V113.412H17.4036V114.28H12.3627V106.07H17.3412V106.944H13.4695V109.6H16.8296V110.474H16.8301ZM15.4196 103.774H16.7121L16.7232 103.808L15.2117 105.274H14.38L15.4196 103.774Z" fill="black"/>
<path d="M24.3868 106.943H21.6896V114.279H20.5828V106.943H17.9194V106.069H24.3868V106.943Z" fill="black"/>
<path d="M26.7291 114.28H25.6165V106.07H26.7291V114.28Z" fill="black"/>
<path d="M33.179 110.474H29.8189V113.411H33.7524V114.28H28.7115V106.07H33.6901V106.944H29.8184V109.6H33.1785V110.474H33.179Z" fill="black"/>
<path d="M36.1223 110.722V114.28H35.015V106.076H37.8133C38.7088 106.076 39.3925 106.275 39.8644 106.673C40.3368 107.071 40.5723 107.651 40.5723 108.41C40.5723 108.831 40.4626 109.197 40.2435 109.51C40.0245 109.822 39.7049 110.07 39.2856 110.254C39.7353 110.401 40.0583 110.638 40.2551 110.967C40.4514 111.296 40.5501 111.703 40.5501 112.188V112.961C40.5501 113.216 40.5781 113.446 40.6342 113.649C40.6903 113.852 40.7875 114.017 40.9263 114.145V114.28H39.7856C39.6396 114.152 39.5458 113.965 39.5047 113.716C39.4636 113.468 39.4428 113.212 39.4428 112.949V112.199C39.4428 111.756 39.3137 111.399 39.055 111.128C38.7963 110.857 38.4501 110.722 38.0154 110.722H36.1223ZM36.1223 109.848H37.7011C38.3268 109.848 38.7774 109.729 39.0526 109.49C39.3277 109.251 39.4655 108.888 39.4655 108.398C39.4655 107.936 39.3316 107.578 39.0637 107.324C38.7958 107.071 38.379 106.944 37.8133 106.944H36.1218V109.848H36.1223Z" fill="black"/>
<path d="M46.6514 112.211C46.6514 111.838 46.5184 111.526 46.2525 111.274C45.9865 111.022 45.518 110.808 44.8478 110.632C44.0161 110.425 43.3672 110.12 42.9006 109.718C42.4344 109.316 42.2009 108.81 42.2009 108.201C42.2009 107.558 42.4518 107.023 42.9538 106.594C43.4557 106.165 44.1075 105.951 44.9092 105.951C45.7708 105.951 46.4575 106.196 46.9686 106.687C47.4797 107.178 47.7277 107.75 47.7132 108.404L47.6963 108.438H46.6398C46.6398 107.972 46.4778 107.586 46.1538 107.282C45.8298 106.977 45.415 106.825 44.9092 106.825C44.3923 106.825 43.9958 106.951 43.7206 107.203C43.4455 107.455 43.3077 107.781 43.3077 108.184C43.3077 108.541 43.4586 108.839 43.7603 109.078C44.062 109.316 44.5514 109.526 45.2298 109.706C46.0542 109.92 46.6814 110.237 47.1122 110.654C47.543 111.071 47.7582 111.586 47.7582 112.199C47.7582 112.86 47.499 113.393 46.9802 113.795C46.4613 114.197 45.7839 114.398 44.9488 114.398C44.1582 114.398 43.4605 114.176 42.8556 113.733C42.2507 113.289 41.9577 112.695 41.976 111.951L41.9872 111.917H43.0437C43.0437 112.432 43.2386 112.83 43.6278 113.11C44.0171 113.39 44.4576 113.53 44.9483 113.53C45.473 113.53 45.8879 113.411 46.193 113.175C46.4991 112.938 46.6514 112.617 46.6514 112.211Z" fill="black"/>
<path d="M52.0946 114.28V106.07H54.668C55.7357 106.07 56.5944 106.4 57.2448 107.059C57.8947 107.719 58.2196 108.571 58.2196 109.617V110.739C58.2196 111.788 57.8947 112.64 57.2448 113.296C56.5949 113.953 55.7357 114.28 54.668 114.28H52.0946V114.28ZM53.2014 106.943V113.411H54.668C55.4247 113.411 56.0214 113.161 56.4581 112.661C56.8942 112.161 57.1128 111.52 57.1128 110.738V109.605C57.1128 108.83 56.8947 108.193 56.4581 107.693C56.0214 107.194 55.4247 106.943 54.668 106.943H53.2014Z" fill="black"/>
<path d="M65.8774 106.07V111.522C65.8774 112.424 65.5854 113.129 65.0008 113.637C64.4166 114.144 63.6633 114.398 62.7422 114.398C61.8544 114.398 61.1276 114.144 60.5619 113.634C59.9961 113.125 59.7137 112.421 59.7137 111.522V106.069H60.8206V111.522C60.8206 112.15 60.9995 112.641 61.3573 112.997C61.7151 113.351 62.1769 113.529 62.7426 113.529C63.3417 113.529 63.8301 113.352 64.2063 112.997C64.5825 112.641 64.7711 112.15 64.7711 111.522V106.069H65.8774V106.07Z" fill="black"/>
<path d="M74.4558 112.74H74.4892L77.1022 106.07H78.4789V114.28H77.372V108.128L77.3382 108.122L74.8601 114.279H74.0903L71.5391 107.919L71.5057 107.925V114.28H70.3984V106.07H71.8539L74.4558 112.74Z" fill="black"/>
<path d="M86.3843 106.07V111.522C86.3843 112.424 86.0922 113.129 85.5076 113.637C84.9235 114.144 84.1701 114.398 83.249 114.398C82.3612 114.398 81.6344 114.144 81.0687 113.634C80.503 113.125 80.2206 112.421 80.2206 111.522V106.069H81.3274V111.522C81.3274 112.15 81.5063 112.641 81.8641 112.997C82.222 113.351 82.6837 113.529 83.2495 113.529C83.8486 113.529 84.3369 113.352 84.7131 112.997C85.0893 112.641 85.2779 112.15 85.2779 111.522V106.069H86.3843V106.07Z" fill="black"/>
<path d="M89.199 113.411H93.1887V114.28H88.0917V106.07H89.199V113.411Z" fill="black"/>
<path d="M98.5481 106.943H95.851V114.279H94.7441V106.943H92.0808V106.069H98.5481V106.943Z" fill="black"/>
<path d="M100.89 114.28H99.7773V106.07H100.89V114.28Z" fill="black"/>
<path d="M106.93 112.74H106.963L109.576 106.07H110.953V114.28H109.846V108.128L109.812 108.122L107.334 114.279H106.564L104.013 107.919L103.98 107.925V114.28H102.872V106.07H104.328L106.93 112.74Z" fill="black"/>
<path d="M117.291 110.474H113.931V113.412H117.864V114.28H112.824V106.07H117.802V106.944H113.931V109.6H117.291V110.474ZM115.88 103.774H117.173L117.184 103.808L115.672 105.274H114.841L115.88 103.774Z" fill="black"/>
<path d="M119.127 114.28V106.07H121.7C122.768 106.07 123.627 106.4 124.277 107.059C124.927 107.719 125.252 108.571 125.252 109.617V110.739C125.252 111.788 124.927 112.64 124.277 113.296C123.627 113.953 122.768 114.28 121.7 114.28H119.127V114.28ZM120.234 106.943V113.411H121.701C122.458 113.411 123.054 113.161 123.491 112.661C123.927 112.161 124.146 111.52 124.146 110.738V109.605C124.146 108.83 123.928 108.193 123.491 107.693C123.054 107.194 122.458 106.943 121.701 106.943H120.234Z" fill="black"/>
<path d="M128.1 114.28H126.988V106.07H128.1V114.28Z" fill="black"/>
<path d="M134.409 112.165H131.33L130.599 114.279H129.469L132.42 106.069H133.369L136.257 114.279H135.128L134.409 112.165ZM131.65 111.235H134.095L132.903 107.71H132.869L131.65 111.235Z" fill="black"/>
<path d="M144.696 110.474H141.336V113.411H145.27V114.28H140.229V106.07H145.208V106.944H141.336V109.6H144.696V110.474Z" fill="black"/>
<path d="M152.253 106.943H149.556V114.279H148.449V106.943H145.786V106.069H152.253V106.943Z" fill="black"/>
<path d="M156.184 114.28V106.07H158.757C159.825 106.07 160.684 106.4 161.334 107.059C161.984 107.719 162.309 108.571 162.309 109.617V110.739C162.309 111.788 161.984 112.64 161.334 113.296C160.684 113.953 159.825 114.28 158.757 114.28H156.184V114.28ZM157.291 106.943V113.411H158.758C159.515 113.411 160.111 113.161 160.548 112.661C160.984 112.161 161.203 111.52 161.203 110.738V109.605C161.203 108.83 160.985 108.193 160.548 107.693C160.111 107.194 159.515 106.943 158.758 106.943H157.291Z" fill="black"/>
<path d="M168.399 110.474H165.039V113.411H168.973V114.28H163.932V106.07H168.911V106.944H165.039V109.6H168.399V110.474Z" fill="black"/>
<path d="M174.157 113.411H178.146V114.28H173.049V106.07H174.157V113.411Z" fill="black"/>
<path d="M179.612 107.158L179.045 109.109H178.5L178.506 107.175V106.07H179.612V107.158H179.612Z" fill="black"/>
<path d="M182.634 114.28H181.522V106.07H182.634V114.28Z" fill="black"/>
<path d="M190.804 114.28H189.696L185.757 108.009L185.724 108.02V114.279H184.617V106.069H185.724L189.663 112.334L189.697 112.323V106.069H190.804V114.28H190.804Z" fill="black"/>
<path d="M198.231 106.943H195.534V114.279H194.427V106.943H191.764V106.069H198.231V106.943Z" fill="black"/>
<path d="M203.816 110.474H200.455V113.411H204.389V114.28H199.349V106.07H204.327V106.944H200.455V109.6H203.816V110.474Z" fill="black"/>
<path d="M206.759 110.722V114.28H205.652V106.076H208.45C209.346 106.076 210.03 106.275 210.502 106.673C210.974 107.071 211.209 107.651 211.209 108.41C211.209 108.831 211.1 109.197 210.881 109.51C210.662 109.822 210.342 110.07 209.923 110.254C210.372 110.401 210.695 110.638 210.892 110.967C211.089 111.296 211.187 111.703 211.187 112.188V112.961C211.187 113.216 211.215 113.446 211.271 113.649C211.327 113.852 211.425 114.017 211.563 114.145V114.28H210.423C210.277 114.152 210.183 113.965 210.142 113.716C210.101 113.468 210.08 113.212 210.08 112.949V112.199C210.08 111.756 209.951 111.399 209.692 111.128C209.433 110.857 209.087 110.722 208.652 110.722H206.759ZM206.759 109.848H208.338C208.964 109.848 209.415 109.729 209.69 109.49C209.965 109.251 210.103 108.888 210.103 108.398C210.103 107.936 209.969 107.578 209.701 107.324C209.433 107.071 209.016 106.944 208.45 106.944H206.759V109.848H206.759Z" fill="black"/>
<path d="M219.115 114.28H218.007L214.069 108.009L214.035 108.02V114.279H212.928V106.069H214.035L217.974 112.334L218.008 112.323V106.069H219.115V114.28H219.115Z" fill="black"/>
<path d="M225.452 110.474H222.092V113.411H226.026V114.28H220.985V106.07H225.964V106.944H222.092V109.6H225.452V110.474Z" fill="black"/>
<path d="M233.009 106.943H230.312V114.279H229.205V106.943H226.542V106.069H233.009V106.943Z" fill="black"/>
<path d="M12.5295 95.7206L12.5503 95.7831C12.5779 97.2044 12.0803 98.3932 11.0581 99.3501C10.0354 100.307 8.68488 100.785 7.00603 100.785C5.29962 100.785 3.90896 100.179 2.83502 98.9653C1.7606 97.7522 1.22339 96.2131 1.22339 94.3478V91.6543C1.22339 89.7891 1.76012 88.248 2.83502 87.0315C3.90945 85.8145 5.29962 85.2061 7.00603 85.2061C8.71244 85.2061 10.0702 85.6622 11.0789 86.5739C12.0875 87.4857 12.5779 88.6939 12.5503 90.1981L12.5295 90.2602H10.5707C10.5707 89.1995 10.2598 88.3606 9.63793 87.7433C9.0161 87.1261 8.13848 86.8175 7.00555 86.8175C5.86585 86.8175 4.95728 87.2785 4.27984 88.2009C3.6024 89.1233 3.26441 90.267 3.26441 91.633V94.3473C3.26441 95.7273 3.60288 96.8783 4.27984 97.8003C4.95679 98.7222 5.86536 99.1837 7.00555 99.1837C8.13848 99.1837 9.0161 98.877 9.63793 98.2632C10.2598 97.6498 10.5707 96.8021 10.5707 95.7206H12.5295Z" fill="black"/>
<path d="M28.2266 100.567H26.1851V93.8805H18.858V100.567H16.8165V85.4253H18.858V92.2685H26.1851V85.4253H28.2266V100.567Z" fill="black"/>
<path d="M41.343 96.6676H35.6639L34.3167 100.567H32.2336L37.6744 85.4253H39.4258L44.7525 100.567H42.6694L41.343 96.6676ZM36.2548 94.9514H40.7628L38.5661 88.4512H38.5037L36.2548 94.9514Z" fill="black"/>
<path d="M56.0664 97.7284H56.1283L60.9472 85.4253H63.4863V100.567H61.4448V89.2213L61.3824 89.2111L56.812 100.567H55.3918L50.687 88.8365L50.6251 88.8467V100.567H48.5836V85.4253H51.2677L56.0664 97.7284Z" fill="black"/>
<path d="M68.6335 100.567V85.4253H73.5565C75.1318 85.4253 76.3649 85.7669 77.256 86.4496C78.1472 87.1323 78.593 88.1571 78.593 89.5226C78.593 90.1743 78.3923 90.7585 77.992 91.2753C77.5916 91.792 77.0592 92.1851 76.3963 92.4558C77.3842 92.5946 78.1665 93.024 78.7434 93.7451C79.3202 94.4661 79.6089 95.3153 79.6089 96.293C79.6089 97.6798 79.1597 98.7386 78.2618 99.4699C77.3634 100.202 76.1473 100.567 74.614 100.567H68.6335V100.567ZM70.675 91.8629H73.981C74.7411 91.8629 75.3596 91.6532 75.8359 91.2335C76.3126 90.8143 76.551 90.2301 76.551 89.4813C76.551 88.6632 76.2938 88.0514 75.7788 87.6457C75.2643 87.2401 74.523 87.0372 73.556 87.0372H70.675V91.8629ZM70.675 93.4641V98.9657H74.6135C75.5462 98.9657 76.2696 98.7352 76.7846 98.2742C77.299 97.8133 77.5568 97.1601 77.5568 96.3139C77.5568 95.4749 77.2942 94.799 76.7691 94.2861C76.244 93.7732 75.5356 93.4991 74.6444 93.4646H74.5095H70.675V93.4641Z" fill="black"/>
<path d="M91.9788 93.5474H85.7812V98.9655H93.0358V100.567H83.7397V85.4251H92.9217V87.037H85.7812V91.9354H91.9788V93.5474ZM89.3773 81.1924H91.7612L91.782 81.255L88.9939 83.9587H87.4601L89.3773 81.1924Z" fill="black"/>
<path d="M99.1052 94.0047V100.567H97.0637V85.4351H102.225C103.876 85.4351 105.136 85.8029 106.007 86.5375C106.878 87.2726 107.313 88.3401 107.313 89.7405C107.313 90.5174 107.111 91.1933 106.706 91.7688C106.303 92.3443 105.713 92.8019 104.94 93.1415C105.769 93.4118 106.365 93.8504 106.727 94.457C107.09 95.0635 107.271 95.8142 107.271 96.7085V98.1336C107.271 98.6052 107.323 99.0279 107.426 99.4025C107.53 99.7771 107.71 100.082 107.966 100.318V100.567H105.862C105.592 100.332 105.419 99.9847 105.343 99.5272C105.267 99.0696 105.23 98.5979 105.23 98.1127V96.7293C105.23 95.9112 104.991 95.2528 104.515 94.7535C104.038 94.2541 103.399 94.0047 102.597 94.0047H99.1052ZM99.1052 92.3928H102.017C103.171 92.3928 104.002 92.173 104.51 91.7324C105.017 91.2923 105.271 90.6212 105.271 89.7201C105.271 88.8676 105.024 88.2072 104.531 87.7389C104.036 87.2707 103.268 87.0368 102.225 87.0368H99.1052V92.3928Z" fill="black"/>
<path d="M116.606 93.1211L120.543 85.4253H122.876L117.58 95.2425V100.567H115.548V95.0867L110.336 85.4253H112.668L116.606 93.1211Z" fill="black"/>
<path d="M139.716 99.147C143.734 99.147 146.991 95.8788 146.991 91.8472C146.991 87.8156 143.734 84.5474 139.716 84.5474C135.699 84.5474 132.442 87.8156 132.442 91.8472C132.442 95.8788 135.699 99.147 139.716 99.147Z" fill="#59C911"/>
<path d="M161.482 98.7828C165.5 98.7828 168.757 95.5145 168.757 91.4829C168.757 87.4513 165.5 84.1831 161.482 84.1831C157.465 84.1831 154.208 87.4513 154.208 91.4829C154.208 95.5145 157.465 98.7828 161.482 98.7828Z" fill="#2993CE"/>
<path d="M183.248 98.7828C187.266 98.7828 190.523 95.5145 190.523 91.4829C190.523 87.4513 187.266 84.1831 183.248 84.1831C179.231 84.1831 175.974 87.4513 175.974 91.4829C175.974 95.5145 179.231 98.7828 183.248 98.7828Z" fill="#364FCC"/>
<path d="M205.015 98.7828C209.032 98.7828 212.289 95.5145 212.289 91.4829C212.289 87.4513 209.032 84.1831 205.015 84.1831C200.997 84.1831 197.74 87.4513 197.74 91.4829C197.74 95.5145 200.997 98.7828 205.015 98.7828Z" fill="#D9002E"/>
<path d="M226.781 98.7828C230.798 98.7828 234.055 95.5145 234.055 91.4829C234.055 87.4513 230.798 84.1831 226.781 84.1831C222.763 84.1831 219.506 87.4513 219.506 91.4829C219.506 95.5145 222.763 98.7828 226.781 98.7828Z" fill="#FF6600"/>
</g>
<defs>
<clipPath id="clip0_85_11">
<rect width="235" height="115" fill="white"/>
</clipPath>
</defs>
</svg>
