<svg width="50" height="50" viewBox="0 0 50 50" fill="none" xmlns="http://www.w3.org/2000/svg">
<g clip-path="url(#clip0_642_390)">
<path d="M24.4857 49.4991C18.0282 49.4991 11.5708 49.4991 5.11331 49.4991C4.52675 49.4991 3.94633 49.4465 3.3747 49.3106C1.6194 48.8917 0.563934 47.7882 0.173185 46.0406C0.0555206 45.5121 0.00634766 44.9757 0.00634766 44.434C0.00634766 31.587 0.00634766 18.7399 0.00634766 5.89278C0.00634766 5.29329 0.0607892 4.69905 0.196015 4.11358C0.620132 2.26776 1.75726 1.13012 3.60651 0.702411C4.29318 0.542896 4.99301 0.500826 5.69549 0.500826C18.2741 0.499073 30.8527 0.499073 43.4314 0.500826C44.2366 0.500826 45.0374 0.55429 45.8154 0.787427C47.215 1.20813 48.1643 2.0986 48.6411 3.48428C48.9054 4.25206 49.0037 5.04612 49.0037 5.85159C49.0063 18.6838 49.0063 31.5168 49.0037 44.349C49.0037 44.9923 48.9414 45.6304 48.7816 46.2562C48.3601 47.9162 47.3029 48.9259 45.6398 49.3133C45.083 49.443 44.5176 49.5 43.945 49.5C37.4586 49.4982 30.9722 49.4991 24.4848 49.4991H24.4857ZM13.4165 24.7182C13.4165 30.1277 13.4165 35.5371 13.4165 40.9466C13.4165 41.3323 13.6156 41.5251 14.0136 41.5251C15.8251 41.5251 17.6366 41.5119 19.4472 41.5356C19.8468 41.5409 19.9284 41.4164 19.9267 41.0422C19.9126 37.6739 19.9232 34.3057 19.9109 30.9375C19.91 30.5966 19.9996 30.4984 20.3473 30.5001C22.7137 30.5159 25.0802 30.5054 27.4466 30.5107C27.9305 30.5115 28.4116 30.4721 28.8867 30.3967C36.5805 29.1855 40.8278 20.8074 37.1609 13.9527C35.0649 10.0349 31.7826 7.92265 27.235 7.94193C22.7945 7.96034 18.3531 7.95157 13.9126 7.93667C13.5043 7.93492 13.4069 8.04974 13.4077 8.4459C13.42 13.8694 13.4165 19.2938 13.4165 24.7182Z" fill="#7D4996"/>
<path d="M19.9732 19.2482C19.9732 17.689 19.9811 16.1298 19.9662 14.5715C19.9627 14.2446 20.0628 14.149 20.3894 14.1508C22.7102 14.1631 25.031 14.1455 27.3527 14.1613C29.5426 14.1762 31.5051 15.8976 32.0074 18.2088C32.6256 21.0573 30.9432 23.6998 28.1588 24.2397C27.8743 24.2949 27.5792 24.3115 27.2886 24.3124C25.0117 24.3185 22.7339 24.3071 20.457 24.3238C20.0742 24.3264 19.9583 24.2274 19.9635 23.8374C19.9855 22.308 19.9723 20.7777 19.9723 19.2482H19.9732Z" fill="#7D4996"/>
</g>
<defs>
<clipPath id="clip0_642_390">
<rect width="49" height="49" fill="white" transform="translate(0.00634766 0.5)"/>
</clipPath>
</defs>
</svg>
