<?xml version="1.0" encoding="utf-8"?>
<!-- Generator: Adobe Illustrator 26.0.1, SVG Export Plug-In . SVG Version: 6.00 Build 0)  -->
<svg version="1.1" id="Layer_2" xmlns="http://www.w3.org/2000/svg" xmlns:xlink="http://www.w3.org/1999/xlink" x="0px" y="0px"
	 viewBox="0 0 841.9 203.9" style="enable-background:new 0 0 841.9 203.9;" xml:space="preserve">
<style type="text/css">
	.st0{fill:url(#SVGID_1_);}
	.st1{fill:#FFFFFF;stroke:#000000;stroke-miterlimit:10;}
</style>
<linearGradient id="SVGID_1_" gradientUnits="userSpaceOnUse" x1="731.1779" y1="196.7676" x2="728.7092" y2="-9.1165" gradientTransform="matrix(1 0 0 -1 0 206)">
	<stop  offset="0" style="stop-color:#253C97"/>
	<stop  offset="0.46" style="stop-color:#7C318D"/>
	<stop  offset="1" style="stop-color:#E62583"/>
</linearGradient>
<polygon class="st0" points="766.6,102.6 833,196.3 761,196.3 731.5,155.1 729.4,155.1 700.2,196.3 627.1,196.3 694,102.6 
	627.1,8.9 700.2,8.9 729.6,50.4 731.3,50.4 761,8.9 833,8.9 "/>
<polygon points="81,9.8 144.4,9.8 186.5,69.3 188.6,69.3 230.6,9.8 294.1,9.8 294.1,197.2 231.4,197.2 231.4,99.2 229.8,99.2 
	188.6,153.6 186.5,153.6 145.2,99.2 143.6,99.2 143.6,197.2 81,197.2 "/>
<polygon points="318.2,9.8 381.6,9.8 423.6,69.3 425.8,69.3 467.8,9.8 531.3,9.8 531.3,197.2 468.6,197.2 468.6,99.2 467,99.2 
	425.8,153.6 423.6,153.6 382.4,99.2 380.8,99.2 380.8,197.2 318.2,197.2 "/>
<rect x="556.7" y="9.8" width="62.7" height="187.4"/>
<g>
	<path class="st1" d="M51.7,170.2v-17h15.1v42.8l-15.1,0.2c-9.1-12.9-16.7-24.5-23.2-24.5c-2.2,0-3.8,1.4-3.8,3.5
		c0,2.4,1.5,3.4,3.8,3.4h4.6v19.2h-4.6c-11,0-19.6-7.9-19.6-22.6c0-13.7,5.9-23.5,18.7-23.5c9.6,0,16.2,9.5,23.7,18.4L51.7,170.2
		L51.7,170.2z"/>
	<path class="st1" d="M43.9,146.6H32.5c-14,0-23.6-8-23.6-22c0-12.3,9.2-22,23.6-22h11.3c15.2,0,23.8,9.7,23.8,22
		C67.7,138.6,58.7,146.6,43.9,146.6z"/>
	<path class="st1" d="M47.9,121.6H28.5c-2.2,0-3.8,0.8-3.8,2.9s1.5,2.9,3.8,2.9h19.3c2.2,0,3.8-0.9,3.8-2.9
		C51.6,122.5,50.1,121.6,47.9,121.6z"/>
	<path class="st1" d="M51.7,69.6v-17h15.1v42.8l-15.1,0.2C42.6,82.7,35,71.1,28.5,71.1c-2.2,0-3.8,1.4-3.8,3.5
		c0,2.4,1.5,3.4,3.8,3.4h4.6v19.2h-4.6c-11,0-19.6-7.9-19.6-22.6c0-13.7,5.9-23.5,18.7-23.5c9.6,0,16.2,9.5,23.7,18.4L51.7,69.6
		L51.7,69.6z"/>
	<path class="st1" d="M38.2,9.8C41.2,7.4,44.8,6,48.7,6c11.4,0,18.1,7,18.1,18.6v22.6l-15.1,0.1V30c0-1.8-0.9-3.1-2.9-3.1
		c-1.8,0-3,1.3-3,3.1v9H30.6v-9c0-1.8-1.2-3.1-3-3.1c-2,0-2.9,1.3-2.9,3.1v17.2L9.7,47.2V24.6C9.7,13,16.4,6,27.8,6
		C31.7,6,35.3,7.4,38.2,9.8L38.2,9.8z"/>
</g>
</svg>
