<svg xmlns="http://www.w3.org/2000/svg" viewBox="0 0 2120.55 841.12"><g id="Calque_2" data-name="Calque 2"><g id="Calque_1-2" data-name="Calque 1"><path d="M430.85.85a4.8,4.8,0,0,0,.07-.85h6c0,.27.05.55.07.83Z"/><path d="M312,0a2.49,2.49,0,0,0,.07.86l-6.15,0A8,8,0,0,0,306,0Z"/><path d="M187.06,0a1.87,1.87,0,0,0,.06.88L181,.83c0-.28,0-.55.08-.83Z"/><path d="M40.67,605.31c7.34-9.56,14.2-18.47,21-27.39q41.88-54.67,83.76-109.36c9.32-12.17,22.35-12,31.5.31,9.91,13.33,19.87,26.63,30.25,40.54,2.57-3.46,4.88-6.56,7.2-9.66Q253.84,447,293.29,394.22c9-12.05,22.22-12.09,31.16-.13q42.89,57.36,85.75,114.74c1.76-.34,2.22-1.9,3.05-3,9.09-12.11,18.12-24.25,27.21-36.36,10-13.31,22.53-13.28,32.71,0l101,132c.78,1,1.64,1.95,3,3.6C580,590.45,582,576.57,582,562.5q.24-206.47.45-412.95c0-3.83-.87-5-4.89-5-30.64.18-61.29.12-91.94.09-10.66,0-17.9-5.13-19.8-13.88-2.48-11.37,5.33-21.52,17.09-21.84,8.82-.25,17.65-.06,26.48-.06q44,0,87.94,0c13.66,0,20.5,6.89,20.5,20.58,0,142.48.52,285-.2,427.45-.4,80-28.82,149.62-83.2,208.41-29.2,31.57-64,55.35-103.38,72.53-12.75,5.56-20.2,3.6-28.53-7.54Q357.21,769.77,312,709.14c-2.81-3.79-3.78-3.26-6.33.16Q259.89,771,213.77,832.48c-6.6,8.83-14.44,10.72-24.53,6.43-37.17-15.8-70.31-37.68-98.81-66.25q-61.88-62-82.16-147.43A309.53,309.53,0,0,1,.13,553.05q.15-212-.13-424c0-12.46,8.83-20.47,20.42-20.36,37.81.38,75.62.12,113.42.16,8,0,14.22,3.43,17.34,11.06,2.82,6.92,1.61,13.43-3.44,19-4.1,4.49-9.52,5.75-15.41,5.74-30.47,0-61,.11-91.43-.14-4.63,0-5.36,1.38-5.35,5.57q.16,204.24.14,408.48A237.6,237.6,0,0,0,40.67,605.31ZM426,801l3.16-1.56a272.47,272.47,0,0,0,90-70.69c5.8-6.91,5.76-7,.47-14Q415.6,575.6,311.71,436.41c-2.78-3.73-3.62-2.56-5.72.25Q200.93,577.46,95.67,718.12c-2,2.71-2.19,4.3,0,7a278.49,278.49,0,0,0,92.75,74.3c3.22,1.61,4.62,1.27,6.75-1.59q49.14-66.07,98.54-132c8.45-11.29,21.65-11.37,30.2-.19,7.17,9.38,14.16,18.91,21.23,28.37Q384,746.07,422.88,798C423.72,799.16,424.23,800.74,426,801Z"/><path d="M181,.83l6.13.05c7.93,1.84,12.79,6.62,14.23,14.73.49,2.78,1.36,5.52,1.54,8.31,1,14.76,10,23.08,22.75,27.91a57.76,57.76,0,0,0,42.85-.46c14.36-5.71,22.09-16.36,22.62-32,.36-10.32,5.07-16,14.8-18.49l6.15,0c9.1,2.39,14.7,8.23,14.64,17.07-.17,21.76,15.12,33.71,34.21,36.72,13.75,2.17,27.21.88,39.39-6.79,8.34-5.24,13.58-12.44,14.54-22.54a60.51,60.51,0,0,1,2.4-12.69c2.1-6.49,6.86-10.4,13.61-11.78l6.14,0c10.55,2.6,16.36,10.38,14.58,20.92-6.1,36.2-12.48,72.35-18.89,108.49-1.33,7.49-6.89,12.58-14.48,13.89a40.36,40.36,0,0,1-6.95.51q-102.39,0-204.78,0c-13.67,0-19.46-4.58-21.87-18q-9.3-51.73-18.26-103.53C164.35,11.6,170.06,3.25,181,.83Zm223.22,84.8c-1.72.58-2.49.89-3.28,1.09-33.22,8.67-64,5.59-90-19.13-1.67-1.59-2.46-1.3-3.94.15C289,85.45,266.91,91.67,242.3,91c-9.61-.26-18.89-2.32-28.69-5.18,1.15,6.53,2.54,12.36,3.08,18.25.38,4.22,2.14,4.9,6,4.89q86.37-.19,172.74-.09c.83,0,1.67-.06,2.49,0,1.57.13,2.52-.41,2.79-2.07C401.79,100,403,93.15,404.21,85.63Z"/><path d="M362,245.7c-9.82,0-19.65-.08-29.47.05-2.76,0-3.78-.74-3.76-3.63q.15-29.46,0-58.91c0-3,1.17-3.59,3.84-3.58q29.73.12,59.44,0c2.77,0,3.79.8,3.77,3.68q-.15,29.44,0,58.9c0,3-1.22,3.58-3.86,3.55C382,245.64,372,245.7,362,245.7Z"/><path d="M254.51,245.7c-9.31,0-18.63-.12-27.95.07-3.31.07-4.63-.62-4.6-4.3q.27-28.69,0-57.37c0-3.46.89-4.54,4.44-4.51q28.44.25,56.9,0c3.9,0,4.67,1.29,4.64,4.87q-.24,28.43,0,56.87c0,3.51-1,4.54-4.49,4.46C273.82,245.56,264.16,245.7,254.51,245.7Z"/><path d="M362.47,286.54c9.82,0,19.64,0,29.46,0,1.75,0,3.92-.48,3.86,2.45-.33,15.11,1.18,30.29-.75,45.32-1.41,11-10.56,18.31-21.51,18.36-13.48.05-27-.08-40.44.07-3.18,0-4.32-.82-4.3-4.16q.21-29,0-57.88c0-3.26.93-4.31,4.22-4.25C342.83,286.66,352.65,286.54,362.47,286.54Z"/><path d="M287.88,319.25c0,9.47-.24,18.95.1,28.41.16,4.37-1.43,5.2-5.4,5.13-12.47-.24-24.94-.07-37.41-.1-12.83,0-22.54-8.94-23-21.92-.44-13.61-.08-27.25-.21-40.87,0-2.65.93-3.41,3.48-3.4q29.43.12,58.85,0c3,0,3.62,1.18,3.59,3.85C287.81,300,287.88,309.61,287.88,319.25Z"/><path d="M1464.2,533.45c-32.2,0-64.4-.22-96.6.16-7.37.09-9.64-2.07-9.57-10,.34-42.81.19-85.62.13-128.43,0-5.51-.33-10.21,7.36-10.09,32.89.49,65.78.54,98.68.75v22.36h-54.11c-23.56,0-26.09-3.77-26.24,14.69,0,3.12.12,10.89.18,15.15.11,7,1.43,8.45,7.77,8.3,17-.4,34,.13,50.92-.25,7.89-.18,13-.07,12.79,11.31-.16,11.12-3.53,14.15-13.48,13.32-10.19-.85-20.49-.19-30.75-.19-23.3,0-27.16-.15-27.38,14.61-.07,4.28,0,10.67,0,17.72.31,5,.91,6.73,6.09,6.65,24.74-.36,49.47-.49,74.21-.69Z"/><path d="M838.06,685.4l-42.42,66.19-42.39-66.36c-2.52,4-1.62,7.31-1.63,10.36-.08,26.82-.83,53.72-.2,80.53,0,9.62.72,11.33-7.83,11.24-5.12,0-11,0-12.21,0-5.47-.11-5.13-1.66-5.11-7q.21-67.62,0-135.23c0-5.08,1.39-6.93,6.54-7.46,13.29-1.37,23,1.2,30.09,15.46,9.23,18.62,21.29,35.7,33,54.85,12.7-20.62,24.57-39.92,36.47-59.21A25.1,25.1,0,0,1,861.32,638c3.78,1.2,3.74,3.92,3.74,6.89,0,45.07,0,90.15.09,135.22,0,5.09-.82,6.91-6.08,7-2.46,0-7.74.19-11,0-8.46-.29-8-1.59-7.82-10.65.57-26.44.2-52.9.2-79.35V686.33Z"/><path d="M1508.72,709.8c23.58,14.39,31,31.4,22.47,52-7.26,17.42-22.27,23.94-38.62,24.94-23.26,1.42-46.64.49-70,.72-4.64.05-6.11-2.1-6.1-6.7q.1-68.07,0-136.14c0-3.74.75-6.79,5.12-6.63,25,.89,50.3-3.08,75.07,2.56,21.11,4.82,30.93,20.14,28.89,42.33C1524.74,692.22,1521.55,697.4,1508.72,709.8Zm-39,13.39c-29,0-29,0-29,26.21,0,2.6.12,5.22,0,7.82-.23,4.51,1.42,7.15,6,7.13,15.2-.08,30.53,1.36,45.52-1.92,8.75-1.91,15.77-6.87,16.26-17.76C1509,734.42,1504,728,1493.27,725,1484.25,722.59,1475,723.12,1469.73,723.19Zm-5.37-60.75c-23.63-.26-23.63-.26-23.6,24.65,0,2.6.1,5.2,0,7.8-.09,3.65,1.41,5.56,5,5.52,12.7-.15,25.48.52,38.09-.68,11-1,16.89-9,16.6-19.36-.28-9.74-6.28-16.46-17.06-17.79C1477.14,661.81,1470.71,662.44,1464.36,662.44Z"/><path d="M1094.3,685.1c0,31.51-.5,61.63.26,91.71.28,10.84-4.6,10.88-12.09,10.74-7.14-.14-12.5.65-12.32-10.5.66-41.68.15-83.39.43-125.08,0-2.51-.24-6.18-.08-9,.13-2.32,1.19-5.07,4.14-5.43a63.61,63.61,0,0,1,11.54-.36c4,.27,7.39,1.16,10.92,6,21.19,29.32,42.83,58.28,64.33,87.35.66.9,6.32,7.08,6.82,3.68.8-5.5.19-20.18.19-25.84V654.82c0-17.23,4.18-20.47,20.69-17,4.52,1,4.53,3.77,4.54,7.2q0,67.57.07,135.15c0,5.09-1.41,7.07-6.58,7.39-9.74.6-17-1.46-23.36-10.7-19.18-27.64-39.49-54.41-59.42-81.46C1101.85,692,1099.85,687.89,1094.3,685.1Z"/><path d="M904.73,164.16c0,33.61-.66,63.71.32,93.75.4,12.09-5.63,10.86-12.89,10.94s-13.18.93-13-10.94c.77-40.56-.37-81.15,0-121.72,0-2.41-.1-7.43-.08-10.36,0-1-.29-5,2.82-6,4.63-1.39,12.89-1.59,19.41-.25,3.55.74,5.81,4.8,7.56,7.24,19.57,27.34,39.66,54.26,59.56,81.34.4.54,9.23,10.47,10,9.35,1.72-2.62.85-8.74.77-16.48-.2-19.36-.48-51.17-.38-68.71,0-2,0-5.52.11-7.71.11-1.9.33-2.57,2.42-3.22,6.32-2,13.52-2.29,19.77.31,1.71.72,1.9,1,2,2.88.08,2,0,5.55,0,7.41.07,32,2.28,98.55.84,125.91-.4,7.63-2.83,9.95-4.32,10.16-4.63.28-9.86.28-14.47.28-3.17,0-5-1.68-7.69-5.43-18.84-26.52-38.35-52.51-57.62-78.69C915.51,178.42,911.12,172.67,904.73,164.16Z"/><path d="M1041.49,713c-.25,45.48-31.62,76.94-76.43,76.66-40.79-.26-71.23-33.46-71.06-77.53.16-43.38,32.21-76.61,73.74-76.47C1010.46,635.78,1041.74,668.59,1041.49,713ZM968.24,765c26.63-.17,47.16-22.86,47.15-52.13s-21.75-52.93-48.2-52.68c-26.27.25-47.25,23.59-47.17,52.45C920.1,742.29,941.21,765.21,968.24,765Z"/><path d="M1267.13,459.91c-.21,44.42-31.58,76.35-74.7,76-42.87-.31-72.88-33.15-72.56-79.39.29-41.71,33.47-75.06,74.46-74.86C1236.67,381.91,1267.34,414.86,1267.13,459.91Zm-26.11-.14c.11-29.94-20.33-53-47.32-53.47s-47.48,22.87-47.76,54.14c-.24,27.42,21.51,50.61,47.64,50.79C1220.58,511.41,1240.91,489.36,1241,459.77Z"/><path d="M1504.29,268.75c-9.08,0-16.1-.33-23.08.11-5.29.34-8.54-1.93-11.36-6.33-6.94-10.77-14.74-21-21.08-32.13-5.67-10-12.43-14.27-23.9-13.38-10,.77-14.11-.07-15.27,4.74-.7,2.88-.27,6.43-.38,12.88-.15,8.58-.54,16.28-.35,24.45s-2.19,9.93-9.66,9.73a72.7,72.7,0,0,0-8.48,0c-5.23.47-7.61-1.28-7.58-7.39q.28-66.44,0-132.87c0-6.64,2.61-8.15,8.26-8.07,21.22.26,42.46-.34,63.66.38,23.92.82,38.76,13.8,43.37,36.38,4.75,23.21-3.81,41.7-25.53,52.65-6.32,3.19-4.73,5.45-1.84,9.67C1481.79,235.2,1492.32,251,1504.29,268.75Zm-71.19-76c6.36,0,12.78.54,19.08-.11A24.18,24.18,0,0,0,1474,169.35c.53-11.48-6.3-20-18.4-23.8-8-2.5-16.14-1.64-24.23-1.69-22.67-.13-22.67,0-22.67,23.76C1408.74,193,1408.74,193,1433.1,192.74Z"/><path d="M1250.59,194.89c0-21.6.22-43.2-.13-64.8-.11-7.19,2-9.76,9-9.68,29,.33,58.07.54,87.09-.09,9.62-.21,8.74,5.35,8.85,11.9.12,6.82.4,11.93-9,11.57-20.86-.79-41.77,0-62.66-.37-6.23-.1-8.56,1.57-8.73,8.64-.7,29.51-.93,29.5,27,29.5,12,0,24.11.64,36.1-.19,10.09-.7,8.53,6,8.4,12.15-.12,5.89,2.27,12.93-8.09,12.54-18-.67-36.11.1-54.16-.33-6.8-.16-9.16,1.83-9.28,9.32-.47,30.72-.7,30.71,28.43,30.71,14.87,0,29.8.13,44.61-.11,4.42.19,7.41,1,7.8,5.09a74.57,74.57,0,0,1-.16,13.53c-.61,3.25-3.58,4.68-7.82,4.68-29.73,0-59.47-.39-89.21-.05-6.83.08-8.27-2.75-8.18-9.2C1250.76,238.1,1250.59,216.5,1250.59,194.89Z"/><path d="M1900.62,268.76c-14.51,0-29-.25-43.54.11-6.45.16-9.45-1.23-9.39-9.07.34-43.21.28-86.41,0-129.62,0-7.06,1.76-9.86,8.92-9.77,29.39.34,58.78.45,88.16,0,10.58-.17,7.36,7.25,7.75,12.86s.84,10.76-7.74,10.5c-21.22-.64-42.48,0-63.72-.33-6.12-.08-8.65,1.36-8.83,8.54-.74,29.61-1,29.6,26.94,29.6,10.63,0,21.26.35,31.86-.11,8.38-.37,13.55.12,13.23,12-.28,10.64-3.37,13.06-12.75,12.64-16.61-.73-33.27.06-49.9-.33-6.63-.16-9.26,1.52-9.39,9.2-.48,30.82-.74,30.81,28.36,30.81,14.87,0,29.75.4,44.6-.12,10.32-.37,7.63,7,8,12.85.36,6,.38,10.84-8,10.45C1930.38,268.27,1915.49,268.75,1900.62,268.76Z"/><path d="M1784.05,765.58c-4-11.28-9.74-15.07-21-14.24-14.8,1.1-29.74.49-44.61.15-5-.11-7.85,1.56-9.4,6.61-1.3,4.23-3.32,8.21-4.95,12.33-7.06,17.91-7.05,17.65-25.18,17.1-6.21-.18-7.22-1.71-4.71-7.65,10.92-25.84,21.51-51.83,32.25-77.76,7.77-18.76,16.18-37.25,23.12-56.35,3.58-9.86,10.21-8.15,17.13-8.54,6.52-.36,10.77.79,13.82,8.34,7.81,18.7,25.37,59.33,34.5,81.81,1.23,3,11.6,29.09,13.78,35.57.77,2.28,6.75,13.54,9.08,19.57.8,2.07.3,3.5-.63,4.07-2.4,1.48-6.65,1-12.25,1-4.28,0-7.33.92-10.86-2.22C1789.58,781.27,1785,768.22,1784.05,765.58Zm-39.21-95.84c-8.32,20.5-15.59,38.4-23.36,57.56,14.38,0,27.1-.17,39.81.08,5.54.11,6.85-1.45,4.48-7C1759,704.44,1752.5,688.35,1744.84,669.74Z"/><path d="M860.2,473c11.3-27.22,23.08-54.25,33.63-81.8,3.91-10.22,10.91-6.86,17.38-7.62,6.14-.71,10.14.62,13,7.69,18.16,44.75,36.82,89.28,55.52,133.79,2.58,6.14,2.21,8.32-4.9,8.5-18.39.44-18.38.75-25.75-17.76-7.23-18.17-7.23-18.17-25.46-18.17-13.44,0-26.88.29-40.31-.13-5.88-.19-9.31,1.62-10.8,7.78-.77,3.2-2.48,6.15-3.75,9.22-2.17,5.26-6.15,14.75-12.44,17.47-7.9,3.41-19.48,1-19.45-1.15C837,521.21,857,480.73,860.2,473ZM908.58,416c-7.54,18.6-14,35-20.87,51.3-2.86,6.8-.91,6.43,10.45,6.86,3.71.14,7-.07,10.49-.07,3.73,0,7.4.21,11.15.16,9.37-.12,12.84-.16,10-7C923,450.94,916.31,434.64,908.58,416Z"/><path d="M847.6,172.24c0,11.55.11,23.09,0,34.63C847,257.7,814.28,276.4,773.47,270c-29.23-4.62-45.86-25.85-46.82-58.34-.82-27.53-.06-55.1-.28-82.65,0-6.17,1.76-8.38,7.85-8.56,17.48-.53,17.47-.82,17.47,17.19q0,31.28,0,62.55a99.41,99.41,0,0,0,.52,13.38c3.09,22.53,17.43,34.4,39.3,32.83C810,245,821.84,230.84,822,209.18q.38-39.09,0-78.19c-.09-7.2,1.09-10.89,9.14-10.61,19.76.69,16.15-1.47,16.44,17.24C847.74,149.16,847.6,160.7,847.6,172.24Z"/><path d="M769.51,382.82c15.7-.17,29.88,4.52,43.08,13.46,5,3.38,6.41,6.28,2.33,11.28-.95,1.42-1.91,2.66-2.85,4s-1.88,2.71-2.72,4.13c-2.78,5.31-5.62,4.91-10.06,1.75-10.42-7.43-21.87-12.23-34.81-11.32-11.16.78-19.65,7.31-20.31,16.08-.82,11,6.51,15.66,14.87,19,13.88,5.49,29,7.11,42.32,14.22,12.86,6.83,20.92,16.85,21.34,33.09.45,17.67-5.37,31.24-20.22,39.89-12.9,7.52-27,8.55-41.24,6.79-15.38-1.89-29.19-8.34-41.84-17.78-2.65-2-3.86-6.33-2.26-10.65,1.48-4,5.63-8,7.13-9.11a8.34,8.34,0,0,1,11,.4,54.74,54.74,0,0,0,43.62,13.26c9.1-1.09,16.51-4.68,18.25-15.36,1.82-11.18-4.73-16.55-13.44-19.57-13.4-4.65-27.29-7.92-40.39-13.31-21-8.67-29.57-28.25-22.37-50.67,5.53-17.22,18.38-25.78,34.86-28.7C760.25,382.87,764.92,383.08,769.51,382.82Z"/><path d="M1574.35,118.39c16.18-.65,30.31,4.28,43.53,13.15,1.68,1.14,5.85,4.38,4.78,7.93-1.3,4.36-4.63,11.3-8.55,14-2.44,1.69-5.74.5-7-.23-10.41-7.44-24.23-12.56-37.13-11.83-11.26.63-19.64,6.93-20.5,15.84-1.07,11.05,6,16.12,14.58,19,11.43,3.86,23.25,6.51,34.52,10.78,26.39,10,36.57,32.08,26.33,57.21-7.24,17.79-22.26,24.39-39.16,26.3-22.79,2.58-43.31-4.37-61.87-18.43-.49-.37-4.28-3.29-3.67-6.86.91-5.32,6.82-12.17,9.57-14.79,3-2.9,6.08-3.17,8.14-2.43,12.76,4.55,34.74,20.28,46.92,18.5,9.25-1.34,16.41-5.66,17.86-16.07,1.55-11.2-6-16.14-14.37-19.08-11.39-4-23.29-6.4-34.56-10.69-29.12-11.06-39.09-42.37-21-65.53C1543.59,121.38,1558.38,117.35,1574.35,118.39Z"/><path d="M2065.66,789.63c-45.31,0-76.34-36.82-72.39-85.85,3.5-43.44,42.26-74,84.41-67.18a79.06,79.06,0,0,1,36,15.14c6.26,4.73,8.81,5.39,2.25,14-.52.69-3.64,4.8-3.92,5.31-5.72,7.75-8.26,6.56-15.14,1-16.4-13.29-34.63-16.42-53.47-5.32-16.38,9.64-26.3,31.4-23.94,51.21,2.77,23.39,15.47,40.21,35,45.62,17.08,4.74,32.47,0,45.42-11.87,6.66-6.12,10-4.36,12.72-.66,2,2.67,4.11,6,5.82,8.17,4.94,6.48.37,8.82-3.11,11.66C2100.39,784.25,2085.68,789.63,2065.66,789.63Z"/><path d="M1158.69,232.44c12.9-34.73,25.32-68.26,37.81-101.76.89-2.39,3.14-7.37,5.16-9.6,5.61-6.18,17.44-2.7,23.12-.15,2.71,3.11.59,5.31-.34,7.72q-18.78,48.54-37.75,97c-4.69,12-9.79,23.92-14,36.15-2.27,6.62-6.16,8.37-12.11,7.62-6.19-.77-13.2,2.6-16.87-7-17-44.47-34.51-88.76-52.06-133-2.75-7-1.57-9.18,5.76-8.92,1.82.07,3.39,0,5,0,2,0,6.72-.08,8.65-.15,6.64-.23,6.24,2.4,8.46,8.49,11.66,31.92,23.72,63.67,35.66,95.46C1156.08,226.68,1157.18,229,1158.69,232.44Z"/><path d="M1043,497.84c11.45-30.69,21.74-58.25,32-85.82,1.16-3.12,2.31-6.24,3.48-9.36,6.7-18,6.7-17.54,24.56-17.61,8.46,0,8.48,3.09,5.81,9.78-11,27.45-21.69,55-32.48,82.51-6.2,15.82-12.79,31.5-18.36,47.57-2.75,7.92-7.28,9.75-14.48,9.31-6.71-.4-12.43.49-15.87-8.6-16.62-43.9-34-87.48-51.31-131.08-2.75-6.91-2.47-9.57,5.76-9.49,18.52.17,18.61-.28,25.53,18.12C1019.14,433.59,1030.44,464.07,1043,497.84Z"/><path d="M1287.72,725.31c-.09,17.28-.22,34.14-.09,51.47-.07,9.22-.18,10.44-8.09,10.34H1270c-9.45.12-8.11-2.78-8-11.59.46-33.86-.09-67.73.37-101.59.12-8.74-3.18-11-11.65-11-9.19.07-16.66-.13-25.5-.06-5.15.15-7.51-1.36-7.81-7.43-.87-17.6-1.15-17.59,16-17.59,29.71,0,59.44.45,89.14-.25,9.59-.23,10.21,4.42,9.83,12-.35,7,1.55,14.57-9.63,13.36-8.4-.91-16.8-.2-25.44-.29-7.3-.43-10,2.17-9.8,10.14C1288.06,690.32,1287.72,707.82,1287.72,725.31Z"/><path d="M1778.31,207.12c0,17.51-.34,35,.16,52.52.21,7.53-2.23,9.05-9.08,9.18-1.31,0-2.85,0-4.3,0s-2.63,0-4.18,0c-6.88-.09-8.27-2.33-8.22-8.92.26-35-.11-70,.3-105.06.09-8.12-1.63-11.52-9.91-10.82-4.94,0-8.88.15-13.9.14-3.8,0-8.28,0-12.64.18-8.92.73-8.83-4.82-8.34-11.16.44-5.66-2.7-13,7.84-12.8q49.39.7,98.8,0c10.36-.17,7.85,6.7,8.09,12.57.25,6.07,1.64,11.21-8.11,11.4-4-.19-8.42-.21-12.65-.23-5,0-8.41-.24-15,0-6.83-.36-9.3,1.84-9.08,9.41C1778.67,171.34,1778.31,189.24,1778.31,207.12Z"/><path d="M1559.8,712.42c0-21.58.31-43.17-.17-64.73-.17-7.92.95-10.62,8.23-10.29,1.37.07,3.66,0,4.82,0,1.33,0,3.19,0,4.53,0,7.62-.1,8.26,3.1,8.2,10.09-.27,34.6.19,69.2-.33,103.79-.14,9.25,2.21,12.13,11.13,11.78,18.36-.73,36.79.31,55.15-.43,3.23-.25,7.85-.3,8,3.31.19,4.32.08,12.15-.08,16.9-.15,4.47-3.18,4.43-7.23,4.52-28.12-.29-56.42-.17-84.35.22-7,.09-8.09-3-8-9.29C1560,756.32,1559.8,734.36,1559.8,712.42Z"/><path d="M1322.05,459.38c0,19.69.09,39.38,0,59.07-.08,13.18,1,14.64-6,14.82-2,.05-7.79-.13-11.26-.14-9.94-.21-7.81-2.72-8.08-12,0-17.1.19-34.17.19-51.26,0-25.27.44-50.54-.19-75.78-.3-11.88,6.8-9.7,13.27-9.74,6.18,0,12.68-1.9,12.29,9.33C1321.52,415.52,1322.05,437.46,1322.05,459.38Z"/><path d="M1682.4,194c0,21.61-.3,43.23.17,64.83.16,7.77-1.91,10.07-9.48,10-1.32,0-2.82-.06-4.44,0s-2.75,0-5.11,0c-4.32-.08-6.44-1.17-6.43-6.23q.18-67.62,0-135.24c0-4.58,1.33-7.12,6-6.77,1.77.13,3.55,0,5.32,0,13.91-.06,13.92-.06,13.92,14.23Q1682.42,164.4,1682.4,194Z"/><path d="M1064.4,194.62c0,21.57-.24,43.13.14,64.69.07,3.89.36,7.63-3.14,8.41-2.85.64-15.71,1-20,.14-3.53-.71-2.8-5.6-2.75-9.95.46-42.37.62-84.76,0-127.13-.2-12.65,7-9.88,13.69-10.29,7.34-.45,12.74-.4,12.31,10.57C1063.81,152.22,1064.4,173.43,1064.4,194.62Z"/><path d="M1902.4,108.35c-4-.9-8.32,1.41-9.82-1.59s2.36-5.64,4.15-8.25c2.06-3,4.29-5.86,6.43-8.81,9.92-13.63,13.46-14.27,27-5,1.72,1.18,4.75,2.74,2.22,4.64C1922.68,96.63,1915.34,108.53,1902.4,108.35Z"/><path d="M1866.61,683c0,33.6-.66,63.7.32,93.75.39,12.08-5.63,10.85-12.89,10.93s-13.18.93-13-10.94c.77-40.56-.37-81.15,0-121.72,0-2.41-.1-7.43-.08-10.36,0-1-.29-5,2.82-6,4.63-1.39,12.89-1.59,19.41-.25,3.55.74,5.81,4.8,7.56,7.24C1890.36,673,1910.45,700,1930.35,727c.4.54,9.23,10.48,10,9.35,1.72-2.62.85-8.74.77-16.48-.2-19.36-.48-51.17-.38-68.71,0-2,0-5.52.11-7.71.11-1.9.33-2.57,2.42-3.22,6.32-2,13.52-2.29,19.77.32,1.71.71,1.9,1,2,2.87.07,2,0,5.55,0,7.41.07,32,2.27,98.55.84,125.91-.4,7.63-2.83,10-4.32,10.17-4.63.27-9.86.27-14.47.27-3.17,0-5-1.68-7.69-5.43-18.84-26.52-38.35-52.51-57.62-78.68C1877.39,697.26,1873,691.51,1866.61,683Z"/></g></g></svg>