<svg width="54" height="31" viewBox="0 0 54 31" fill="none" xmlns="http://www.w3.org/2000/svg">
<g clip-path="url(#clip0_642_375)">
<path d="M8.88012 31.0003C8.51731 30.9261 8.14897 30.8712 7.79171 30.7744C4.14219 29.7849 1.6898 27.4998 0.518988 23.9519C-1.21126 18.7086 1.57209 13.0163 6.79399 11.1507C9.48595 10.1894 12.135 10.3892 14.6995 11.652C14.7362 11.6698 14.7736 11.6863 14.8332 11.7145C14.8602 11.6499 14.8872 11.5916 14.9086 11.5304C15.8371 8.94316 16.7663 6.35588 17.6871 3.76654C17.7176 3.68071 17.7003 3.55093 17.6553 3.46922C17.4116 3.02496 17.154 2.58826 16.8951 2.15224C16.8411 2.0616 16.8418 2.00323 16.9158 1.9229C17.4739 1.3159 18.025 0.703413 18.5838 0.0964181C18.6288 0.0476662 18.7091 0.0037209 18.7728 0.0037209C20.0295 -0.00108562 21.2861 0.000287671 22.5428 0.00166096C22.5622 0.00166096 22.5822 0.00990072 22.6196 0.0188271C22.6383 0.382749 22.6577 0.749418 22.6785 1.14973H22.4528C21.4377 1.14973 20.4227 1.15248 19.4077 1.1463C19.2623 1.14561 19.1626 1.18613 19.0712 1.2953C18.9258 1.46902 18.7728 1.63656 18.6115 1.79655C18.5215 1.88582 18.5208 1.9586 18.581 2.06435C18.8019 2.45093 19.0207 2.83888 19.2228 3.23576C19.272 3.33258 19.2914 3.47266 19.263 3.57634C18.9673 4.67154 18.6585 5.76399 18.3539 6.85713C18.3373 6.9155 18.3241 6.97524 18.3054 7.04871H32.4895C32.5566 6.84134 32.6259 6.62917 32.6937 6.42111C32.2028 6.29271 31.7154 6.19658 31.2508 6.03522C30.6283 5.81892 30.0204 5.55869 29.4139 5.29982C29.2678 5.23734 29.1349 5.11992 29.0262 5.00113C28.8572 4.81574 28.8898 4.5864 29.1072 4.46005C29.2394 4.38315 29.4001 4.3241 29.5517 4.31586C30.9371 4.23895 32.3233 4.17372 33.7087 4.1078C34.8878 4.0515 36.067 3.99725 37.2461 3.94713C37.3894 3.94095 37.5369 3.95125 37.6774 3.97871C38.0236 4.04601 38.1496 4.27191 37.9516 4.55893C37.7321 4.87685 37.469 5.17554 37.1824 5.43646C36.6624 5.90888 36.004 6.1341 35.3254 6.22473C34.8311 6.29065 34.568 6.4884 34.4717 6.96837C34.4212 7.21968 34.2924 7.4552 34.2135 7.70239C34.1927 7.76831 34.1982 7.872 34.2384 7.92212C35.3227 9.28786 36.4125 10.6488 37.5016 12.0104C37.5057 12.0152 37.5133 12.0173 37.5016 12.0104C38.0139 11.7694 38.5041 11.503 39.0199 11.3011C42.9229 9.77263 47.2461 10.6337 50.161 13.7112C52.2229 15.8886 53.1555 18.4978 52.9859 21.4731C52.7491 25.6287 49.974 29.2233 45.9956 30.5526C45.4369 30.7394 44.8456 30.8273 44.2688 30.9612C44.2231 30.9721 44.1781 30.9872 44.1331 31.0003H41.6475C41.4786 30.9694 41.3096 30.9412 41.1414 30.9062C37.5763 30.1653 35.0644 28.126 33.5647 24.85C33.3584 24.3989 33.213 23.9203 33.0378 23.4506C33.033 23.4499 33.0191 23.4431 33.0067 23.4458C32.0297 23.6223 31.0535 23.7981 30.0772 23.9786C30.0267 23.9883 29.963 24.0322 29.9415 24.0775C29.7982 24.3797 29.5676 24.6014 29.2928 24.7793C29.1951 24.8424 29.1695 24.9008 29.1951 25.0127C29.2831 25.3993 29.3578 25.7886 29.4395 26.1766C29.5316 26.6167 29.6258 27.0562 29.7227 27.5114H30.4213C30.4386 27.7531 30.4553 27.9749 30.4726 28.2132C30.0883 28.2331 29.731 28.2516 29.3738 28.2695C29.0103 28.2874 28.6475 28.3045 28.277 28.3224V27.5506H28.7783C28.7714 27.497 28.7707 27.4572 28.7617 27.4194C28.5616 26.6312 28.3567 25.8443 28.1628 25.0539C28.1309 24.9242 28.0513 24.9049 27.9482 24.8782C27.1228 24.6619 26.6957 23.969 26.8625 23.143C26.8764 23.073 26.8438 22.9707 26.7954 22.915C23.517 19.1584 20.2351 15.4052 16.9553 11.6492C16.9158 11.6046 16.9027 11.5373 16.8771 11.481C16.6811 11.8827 16.5648 12.2253 16.4277 12.5604C16.3689 12.7039 16.4097 12.774 16.5205 12.8653C19.927 15.6682 21.2058 20.4253 19.5967 24.4847C18.3304 27.6797 16.0213 29.7822 12.6757 30.7304C12.261 30.8479 11.8296 30.9117 11.4066 30.9996H8.87943L8.88012 31.0003ZM14.2848 13.6769C13.33 13.0569 11.8442 12.579 10.6436 12.5323C7.64838 12.4155 5.23822 13.5657 3.50521 15.9737C1.11997 19.2889 1.46062 23.7095 4.32567 26.6305C6.37995 28.7247 8.91889 29.5171 11.8123 28.9273C15.3545 28.205 17.9876 25.205 18.3131 21.609C18.5111 19.42 17.9329 17.4356 16.5842 15.6853C16.3273 15.3523 16.0261 15.0523 15.7457 14.7371C15.7021 14.7748 15.6869 14.781 15.6827 14.792C15.6495 14.8744 15.6183 14.9575 15.5865 15.0406C15.1586 16.1372 14.6054 17.1644 13.8749 18.0941C13.1618 19.0012 12.3129 19.7723 11.4163 20.4939C11.3076 20.5811 11.2501 20.6697 11.2363 20.8139C11.1933 21.2595 10.8631 21.6289 10.4539 21.721C9.88337 21.8494 9.31216 21.4978 9.16953 20.9306C9.02206 20.3449 9.35994 19.7386 9.94153 19.6054C10.1562 19.556 10.3168 19.4571 10.476 19.3239C11.6662 18.3276 12.7505 17.2392 13.4131 15.8151C13.7378 15.1168 13.9975 14.3896 14.2855 13.6769H14.2848ZM38.5637 13.576C38.5907 13.6213 38.608 13.6584 38.6315 13.6899C40.0613 15.6105 41.491 17.531 42.9249 19.4488C42.9686 19.5065 43.051 19.5539 43.123 19.5697C43.7593 19.7057 44.1491 20.3188 43.9815 20.9334C43.8112 21.5589 43.2012 21.8837 42.576 21.6887C42.4894 21.6619 42.387 21.6564 42.2983 21.6736C40.4172 22.0334 38.5367 22.3973 36.6555 22.7619C36.1085 22.8677 35.5629 22.9768 35.0055 23.0867C35.0208 23.1554 35.0298 23.2082 35.045 23.2597C35.4681 24.7086 36.2574 25.9294 37.3686 26.9546C40.1077 29.4814 44.2425 29.8625 47.3188 27.7641C50.2759 25.7474 51.5028 22.8876 50.9378 19.387C50.4746 16.5196 48.815 14.4432 46.1466 13.2155C44.2411 12.3386 42.261 12.3393 40.2614 12.8742C39.6687 13.0328 39.1003 13.2539 38.563 13.578L38.5637 13.576ZM28.1365 20.29C28.1496 20.2914 28.1621 20.2927 28.1753 20.2934C29.4201 16.477 30.665 12.6614 31.9155 8.82712C31.8358 8.82712 31.7812 8.82712 31.7265 8.82712C27.226 8.83193 22.7256 8.83605 18.2251 8.84154C17.7522 8.84154 17.7598 8.84772 17.602 9.29198C17.5424 9.45884 17.557 9.56732 17.6802 9.7074C20.7862 13.2313 23.8867 16.7599 26.9878 20.2872C27.0169 20.3202 27.0522 20.3477 27.1152 20.406C27.0778 19.957 27.0439 19.5512 27.0079 19.1254H26.5239C26.5059 18.8789 26.49 18.653 26.4727 18.4141H28.3622C28.3795 18.6647 28.3968 18.9071 28.4148 19.1735H27.9842C28.0368 19.5615 28.0866 19.9254 28.1365 20.2893V20.29ZM32.7913 21.7429C32.6577 20.0881 32.8363 18.4896 33.3999 16.9419C33.9684 15.3805 34.8989 14.0573 36.1203 12.912C35.2659 11.8772 34.4198 10.8527 33.5516 9.80147C32.2222 13.9035 30.9046 17.9691 29.5745 22.0725C30.6657 21.9606 31.7188 21.8528 32.792 21.7429H32.7913ZM34.6877 21.3248C37.0266 20.9382 39.3135 20.5605 41.6399 20.176C40.1693 18.2438 38.7229 16.3438 37.2696 14.435C36.6541 14.9747 36.1549 15.5707 35.7616 16.2539C35.1468 17.3202 34.874 18.4848 34.7743 19.6954C34.7307 20.2254 34.7168 20.7576 34.6877 21.3248Z" fill="#7D4996"/>
</g>
<defs>
<clipPath id="clip0_642_375">
<rect width="53" height="31" fill="white" transform="translate(0.00634766)"/>
</clipPath>
</defs>
</svg>
